<?xml version="1.0" encoding="UTF-8"?>
<svg version="1.1" xmlns="http://www.w3.org/2000/svg" width="616" height="402">
<path d="M0 0 C9.24 0 18.48 0 28 0 C28.33 13.86 28.66 27.72 29 42 C34.383125 41.95875 39.76625 41.9175 45.3125 41.875 C108.43958519 41.71979259 108.43958519 41.71979259 121 48 C121.28818403 76.76963305 120.90021183 105.50805259 120.18856049 134.26796722 C120.12541894 136.85781662 120.06527457 139.44771996 120.00592041 142.03765869 C119.90998397 146.19543962 119.80530413 150.35291889 119.69424438 154.51032257 C119.65425235 156.0446371 119.61665254 157.57901645 119.58181763 159.11345673 C119.39266669 167.31270247 118.96199169 175.44353199 118.10107422 183.60205078 C118.02710482 184.33162931 117.95313541 185.06120785 117.87692451 185.81289482 C115.87981783 203.30811242 106.12878567 219.14961462 93 230.625 C75.11124422 244.61842338 55.48835514 247.9664361 33.25390625 245.6015625 C15.76509076 242.23916851 -0.44389762 231.12543197 -11 217 C-22.68710719 198.56170174 -24.24157423 180.29476134 -24.8515625 158.99609375 C-24.91543076 156.94855607 -24.97984476 154.90103535 -25.04476929 152.85353088 C-25.17908534 148.56289033 -25.30792771 144.27213202 -25.43261719 139.98120117 C-25.58933406 134.59717964 -25.75782239 129.2136103 -25.93014908 123.83006859 C-26.7350496 98.54661653 -27.2190215 73.2963707 -27 48 C-17.80922897 45.27871026 -9.82278689 44.65485246 0 44 C0 29.48 0 14.96 0 0 Z " fill="#E2BFF8" transform="translate(57,0)"/>
<path d="M0 0 C9.24 0 18.48 0 28 0 C28.33 13.86 28.66 27.72 29 42 C34.383125 41.95875 39.76625 41.9175 45.3125 41.875 C108.43958519 41.71979259 108.43958519 41.71979259 121 48 C121.14863004 52.05645682 121.25733927 56.11185486 121.32958984 60.17041016 C121.35971304 61.54992281 121.40062275 62.92924467 121.45263672 64.30810547 C121.52562502 66.29310092 121.55629398 68.27950932 121.5859375 70.265625 C121.6173584 71.45961914 121.6487793 72.65361328 121.68115234 73.88378906 C121 77 121 77 118.14086914 79.35986328 C98.82574472 89.44606661 70.73625737 86.35287793 49.49487305 86.31567383 C46.62850242 86.31104371 43.76255632 86.31798099 40.89624023 86.33618164 C26.41139609 86.42700628 12.03310603 86.31340771 -2.38671875 84.73046875 C-3.40683548 84.62237381 -4.42695221 84.51427887 -5.47798157 84.40290833 C-13.05448313 83.4528982 -20.15083305 81.42458347 -27 78 C-27 68.1 -27 58.2 -27 48 C-15 45 -15 45 0 44 C0 29.48 0 14.96 0 0 Z " fill="#5FE0A7" transform="translate(57,0)"/>
<path d="M0 0 C1.25796135 -0.0099852 1.25796135 -0.0099852 2.54133606 -0.02017212 C4.31570244 -0.03028681 6.09010677 -0.0349895 7.86450195 -0.03466797 C10.55550436 -0.0390196 13.24483683 -0.07529011 15.93554688 -0.11328125 C17.66535902 -0.11915429 19.3951789 -0.12312042 21.125 -0.125 C22.31611641 -0.14655655 22.31611641 -0.14655655 23.53129578 -0.16854858 C30.73343686 -0.11078587 36.57748628 2.08230152 42.20703125 6.5859375 C49.8589944 16.20554832 50.40611601 27.2060649 49.0859375 39.12109375 C48.18612331 44.40053451 46.77200257 48.06442965 43.39453125 52.3359375 C42.65203125 53.2846875 41.90953125 54.2334375 41.14453125 55.2109375 C40.56703125 55.9121875 39.98953125 56.6134375 39.39453125 57.3359375 C40.15378906 57.5834375 40.91304687 57.8309375 41.6953125 58.0859375 C46.24579219 60.19325082 48.1826909 63.96571518 50.39453125 68.3359375 C53.83588088 78.48057955 53.91810766 91.75692409 49.359375 101.5625 C45.3231576 108.49285399 40.10919385 112.60790239 32.7097168 115.48925781 C26.16723378 117.16017107 19.450495 116.92386751 12.734375 116.85742188 C10.13578216 116.83586492 7.5399181 116.85735609 4.94140625 116.8828125 C3.27473354 116.88017099 1.60806251 116.87504967 -0.05859375 116.8671875 C-1.21189178 116.87933289 -1.21189178 116.87933289 -2.38848877 116.89172363 C-7.53801222 116.80254329 -10.5629804 115.79483254 -14.60546875 112.3359375 C-16.3336118 109.50844149 -16.85768709 107.39269009 -16.87289429 104.09890747 C-16.88142426 103.26066437 -16.88995422 102.42242126 -16.89874268 101.55877686 C-16.89738312 100.19187714 -16.89738312 100.19187714 -16.89599609 98.79736328 C-16.90271332 97.83105988 -16.90943054 96.86475647 -16.91635132 95.86917114 C-16.93535718 92.67314519 -16.93925682 89.47732895 -16.94140625 86.28125 C-16.9478323 84.05931512 -16.95456051 81.83738109 -16.96157837 79.615448 C-16.97355756 74.95666543 -16.97725852 70.29795704 -16.97607422 65.63916016 C-16.97587098 59.6714505 -17.0031758 53.7042168 -17.03761864 47.73661995 C-17.05986327 43.14694028 -17.0639125 38.55737561 -17.06285477 33.96764755 C-17.06521429 31.76763137 -17.07405752 29.56761219 -17.0895195 27.36764908 C-17.10912992 24.28919455 -17.10336047 21.21177217 -17.09130859 18.13330078 C-17.10254761 17.22608276 -17.11378662 16.31886475 -17.12536621 15.38415527 C-17.06918588 9.73273732 -16.26650377 6.69447777 -12.60546875 2.3359375 C-8.98517976 -0.52704877 -4.41721706 0.0122248 0 0 Z M12.39453125 23.3359375 C12.39453125 31.2559375 12.39453125 39.1759375 12.39453125 47.3359375 C14.70453125 47.3359375 17.01453125 47.3359375 19.39453125 47.3359375 C22.21446995 44.5159988 21.68415963 42.40689591 21.71679688 38.55273438 C21.71357422 37.67681641 21.71035156 36.80089844 21.70703125 35.8984375 C21.72314453 35.02638672 21.73925781 34.15433594 21.75585938 33.25585938 C21.75650391 32.41732422 21.75714844 31.57878906 21.7578125 30.71484375 C21.76079346 29.9472876 21.76377441 29.17973145 21.7668457 28.38891602 C21.52061678 26.28143847 21.52061678 26.28143847 20.24682617 24.56225586 C17.93095205 22.78390314 17.93095205 22.78390314 12.39453125 23.3359375 Z M12.39453125 67.3359375 C12.39453125 75.9159375 12.39453125 84.4959375 12.39453125 93.3359375 C17.94655875 93.79642753 17.94655875 93.79642753 20.73632812 92.12109375 C22.81741295 89.8806797 22.90877964 88.79972366 22.92578125 85.7734375 C22.9309375 84.89429688 22.93609375 84.01515625 22.94140625 83.109375 C22.9259375 82.19414062 22.91046875 81.27890625 22.89453125 80.3359375 C22.91 79.42070312 22.92546875 78.50546875 22.94140625 77.5625 C22.93625 76.68335938 22.93109375 75.80421875 22.92578125 74.8984375 C22.92126953 74.09535156 22.91675781 73.29226563 22.91210938 72.46484375 C22.54711376 70.2088922 22.54711376 70.2088922 20.73632812 68.55078125 C17.94655875 66.87544747 17.94655875 66.87544747 12.39453125 67.3359375 Z " fill="#5955DF" transform="translate(16.60546875,241.6640625)"/>
<path d="M0 0 C4.03843343 2.60254599 6.29289779 5.25369336 7.8125 9.8125 C7.96139747 11.65716442 8.0604101 13.50607275 8.12890625 15.35546875 C8.17080078 16.42861328 8.21269531 17.50175781 8.25585938 18.60742188 C8.29517578 19.72697266 8.33449219 20.84652344 8.375 22 C8.41818359 23.13115234 8.46136719 24.26230469 8.50585938 25.42773438 C8.61199099 28.22253354 8.71404385 31.01742162 8.8125 33.8125 C9.740625 33.173125 10.66875 32.53375 11.625 31.875 C16.99472494 28.4004721 21.58459409 28.30428809 27.8125 28.8125 C33.40356363 30.0409863 37.20082126 32.27210387 40.8125 36.8125 C44.57763342 43.42389838 44.26362358 49.86843707 44.24609375 57.33984375 C44.2513356 58.64272842 44.25657745 59.9456131 44.26197815 61.28797913 C44.27087876 64.03738132 44.26852147 66.78649258 44.25854492 69.53588867 C44.24705988 73.04065548 44.26727339 76.54441397 44.29646206 80.04904842 C44.31933338 83.41686498 44.31235269 86.78445162 44.30859375 90.15234375 C44.31982773 91.40152084 44.33106171 92.65069794 44.34263611 93.93772888 C44.27864309 101.97388551 43.4778182 107.6584727 37.99609375 113.87109375 C37.41988281 114.32613281 36.84367187 114.78117187 36.25 115.25 C35.67121094 115.72308594 35.09242188 116.19617188 34.49609375 116.68359375 C29.19216029 120.24005958 21.88532807 119.42984827 15.8125 118.8125 C11.75078753 117.19505729 8.87646478 114.87646478 5.8125 111.8125 C5.34199219 112.23402344 4.87148437 112.65554688 4.38671875 113.08984375 C3.76410156 113.63769531 3.14148438 114.18554688 2.5 114.75 C1.88511719 115.29527344 1.27023438 115.84054687 0.63671875 116.40234375 C-3.06623519 119.26479851 -6.67365736 119.11852323 -11.1875 118.8125 C-15.8416135 117.07861458 -18.5414422 115.02659205 -21.1875 110.8125 C-22.32738314 105.82240011 -22.34173403 100.91755166 -22.34863281 95.82885742 C-22.35359772 94.94510941 -22.35856262 94.06136139 -22.36367798 93.15083313 C-22.37823074 90.23987029 -22.38508979 87.32896193 -22.390625 84.41796875 C-22.39638174 82.3854421 -22.4021394 80.35291544 -22.40789795 78.32038879 C-22.41838809 74.06279244 -22.42424387 69.80521487 -22.42773438 65.54760742 C-22.43321752 60.10720891 -22.45725027 54.66706086 -22.48570633 49.22674084 C-22.50438046 45.02898953 -22.50954083 40.83129801 -22.51107025 36.63350868 C-22.51408608 34.6285598 -22.52207823 32.62361169 -22.53525543 30.61870384 C-22.55241739 27.80705352 -22.55041111 24.99600842 -22.54394531 22.18432617 C-22.55776749 20.95659988 -22.55776749 20.95659988 -22.5718689 19.70407104 C-22.53171381 14.09590106 -21.70901941 8.88255909 -19.1875 3.8125 C-13.30433183 -1.09014014 -7.33988655 -2.73446754 0 0 Z M7.8125 52.8125 C7.8125 66.6725 7.8125 80.5325 7.8125 94.8125 C9.7925 95.1425 11.7725 95.4725 13.8125 95.8125 C15.2737027 94.58016415 15.2737027 94.58016415 14.92602539 90.84350586 C14.9258662 89.07144393 14.92016785 87.2993774 14.91015625 85.52734375 C14.9087413 84.59652481 14.90732635 83.66570587 14.90586853 82.7066803 C14.90025172 79.72108809 14.8876964 76.73556971 14.875 73.75 C14.86998716 71.73112087 14.86542388 69.71224057 14.86132812 67.69335938 C14.85027683 62.73304428 14.83300095 57.77278468 14.8125 52.8125 C11.22922247 51.81032936 11.22922247 51.81032936 7.8125 52.8125 Z " fill="#5955DF" transform="translate(244.1875,241.1875)"/>
<path d="M0 0 C4.3976262 4.63533573 5.07454807 8.20266475 5.31640625 14.421875 C5.35830078 15.44667969 5.40019531 16.47148437 5.44335938 17.52734375 C5.48267578 18.59082031 5.52199219 19.65429688 5.5625 20.75 C5.60568359 21.82894531 5.64886719 22.90789062 5.69335938 24.01953125 C5.79928989 26.67956428 5.90136421 29.33968812 6 32 C6.928125 31.360625 7.85625 30.72125 8.8125 30.0625 C14.18222494 26.5879721 18.77209409 26.49178809 25 27 C30.59106363 28.2284863 34.38832126 30.45960387 38 35 C41.72755305 41.56810431 41.43508976 47.8888815 41.3984375 55.30859375 C41.40130768 56.58928238 41.40417786 57.86997101 41.40713501 59.18946838 C41.41154016 61.89180441 41.40518745 64.59384151 41.39111328 67.29614258 C41.37403915 70.74023776 41.38386202 74.1836305 41.40183067 77.62769985 C41.41535193 80.9380523 41.40585091 84.24822142 41.3984375 87.55859375 C41.40451019 88.78589706 41.41058289 90.01320038 41.4168396 91.2776947 C41.35570919 98.76363107 41.12166974 105.33077932 36.0625 111.27734375 C35.381875 111.82519531 34.70125 112.37304688 34 112.9375 C33.319375 113.50339844 32.63875 114.06929688 31.9375 114.65234375 C26.52562816 118.41664977 19.26762419 117.72620698 13 117 C9.01912997 115.41596471 5.52866408 113.41965537 2 111 C1.071875 111.804375 0.14375 112.60875 -0.8125 113.4375 C-4.96835522 117.03924119 -8.55557226 117.36911375 -14 117 C-17.59470303 115.54829301 -20.5695997 114.06997933 -23 111 C-28.68335986 93.94992041 -25.22133214 70.39866565 -25.24023438 52.47509766 C-25.24578705 47.98216171 -25.27002237 43.48951845 -25.29820633 38.99667549 C-25.31683614 35.50331757 -25.32203777 32.01003166 -25.32357025 28.51662827 C-25.32657984 26.85890927 -25.33455051 25.20119102 -25.34775543 23.54352188 C-25.36487756 21.23597501 -25.36292487 18.92916723 -25.35644531 16.62158203 C-25.36009094 15.31480499 -25.36373657 14.00802795 -25.36749268 12.66165161 C-24.83473249 7.35329491 -23.46897492 3.4313089 -19.5625 -0.375 C-13.22371202 -4.39471921 -6.30454693 -4.06293024 0 0 Z M5 51 C5 64.86 5 78.72 5 93 C9.60532389 94.45314664 9.60532389 94.45314664 12 93 C12 79.14 12 65.28 12 51 C7.39467611 49.54685336 7.39467611 49.54685336 5 51 Z " fill="#5955DF" transform="translate(173,243)"/>
<path d="M0 0 C5.79567753 5.18718127 7.95410203 11.31708249 8.46182251 18.90509033 C8.54986072 22.29503426 8.57291694 25.67922263 8.5703125 29.0703125 C8.57459763 30.30993744 8.57888275 31.54956238 8.58329773 32.82675171 C8.58902133 35.43722932 8.58955588 38.04772287 8.58520508 40.65820312 C8.58308596 43.32763684 8.58757028 45.99579671 8.60571289 48.66503906 C8.63020422 52.52943745 8.63436896 56.39334621 8.6328125 60.2578125 C8.64202225 61.44855377 8.65123199 62.63929504 8.66072083 63.86611938 C8.60274204 74.24390047 8.60274204 74.24390047 5.26953125 79.03125 C1.64319023 82.38561544 -0.96117742 83.85779007 -5.91796875 84.34375 C-10.05303901 84.00480982 -12.40270196 82.94004367 -15.93359375 80.90625 C-17.84690386 79.8123463 -17.84690386 79.8123463 -20.73046875 80.03125 C-22.37015625 81.02125 -22.37015625 81.02125 -24.04296875 82.03125 C-29.96851144 85.08712137 -36.24138552 84.90201379 -42.73046875 84.03125 C-48.44201449 81.93731357 -52.31810533 77.94906787 -55.73046875 73.03125 C-59.15205326 64.84604608 -59.11428916 54.34125855 -56.890625 45.80859375 C-54.25696044 39.92940316 -50.56841604 36.65710495 -44.73046875 34.03125 C-40.89859364 32.7539583 -37.28338558 32.88614714 -33.29296875 32.90625 C-32.52919922 32.90238281 -31.76542969 32.89851563 -30.97851562 32.89453125 C-30.23794922 32.89582031 -29.49738281 32.89710938 -28.734375 32.8984375 C-28.06220947 32.89956543 -27.39004395 32.90069336 -26.69750977 32.90185547 C-24.60879416 33.03925391 -22.7421595 33.46594441 -20.73046875 34.03125 C-20.8711001 31.73925823 -21.01812818 29.44765814 -21.16796875 27.15625 C-21.24917969 25.88007813 -21.33039062 24.60390625 -21.4140625 23.2890625 C-21.52252902 20.14824848 -21.52252902 20.14824848 -22.73046875 18.03125 C-24.05046875 18.03125 -25.37046875 18.03125 -26.73046875 18.03125 C-26.82328125 19.8875 -26.82328125 19.8875 -26.91796875 21.78125 C-27.33704738 25.16381322 -27.581219 25.87393269 -30.04296875 28.46875 C-35.02995921 31.36816306 -40.06300704 31.57335503 -45.73046875 31.03125 C-50.41130616 29.35321395 -53.1241709 27.2785502 -55.73046875 23.03125 C-57.51760572 16.26566005 -56.17809105 11.04712979 -53.23046875 4.90625 C-41.12100554 -9.01963269 -14.70614583 -10.60357296 0 0 Z M-28.73046875 52.03125 C-29.0494639 54.40080386 -29.0494639 54.40080386 -28.98046875 57.03125 C-28.985625 57.918125 -28.99078125 58.805 -28.99609375 59.71875 C-28.95099737 62.22525239 -28.95099737 62.22525239 -26.73046875 64.03125 C-24.18856873 64.2813273 -24.18856873 64.2813273 -21.73046875 64.03125 C-20.4249912 62.94955354 -20.4249912 62.94955354 -20.59765625 60.34375 C-20.60152344 58.7040625 -20.60152344 58.7040625 -20.60546875 57.03125 C-20.60289062 55.938125 -20.6003125 54.845 -20.59765625 53.71875 C-20.4249912 51.11294646 -20.4249912 51.11294646 -21.73046875 50.03125 C-25.69163675 49.64034667 -25.69163675 49.64034667 -28.73046875 52.03125 Z " fill="#5955DF" transform="translate(607.73046875,275.96875)"/>
<path d="M0 0 C3.28636404 1.43778427 5.70241762 3.24290115 8 6 C9.00724922 9.02174765 9.14772981 11.11911797 9.18945312 14.28173828 C9.20617065 15.3594046 9.22288818 16.43707092 9.2401123 17.5473938 C9.25368774 18.70995697 9.26726318 19.87252014 9.28125 21.0703125 C9.29965942 22.26228241 9.31806885 23.45425232 9.33703613 24.68234253 C9.41587709 29.79415746 9.48364208 34.90610543 9.55224609 40.01806641 C9.60381615 43.74388468 9.66111533 47.46958393 9.71875 51.1953125 C9.73232544 52.36192413 9.74590088 53.52853577 9.7598877 54.73049927 C9.77660522 55.80186127 9.79332275 56.87322327 9.81054688 57.97705078 C9.82307495 58.92508575 9.83560303 59.87312073 9.84851074 60.84988403 C9.7625439 62.98109765 9.7625439 62.98109765 11 64 C12.66617115 64.04063832 14.33388095 64.042721 16 64 C16.00586624 63.32205887 16.01173248 62.64411774 16.01777649 61.94563293 C16.08171579 54.88885465 16.16613745 47.83253219 16.26245117 40.77612305 C16.29570325 38.14272064 16.32373424 35.50924691 16.34643555 32.87573242 C16.37997529 29.09002289 16.4322932 25.30496711 16.48828125 21.51953125 C16.49786613 19.7536541 16.49786613 19.7536541 16.50764465 17.95210266 C16.52743881 16.85133896 16.54723297 15.75057526 16.56762695 14.61645508 C16.57873001 13.65048904 16.58983307 12.68452301 16.60127258 11.68928528 C17.25504465 7.27980769 19.59745719 3.83545234 23 1 C28.46545798 -0.82181933 34.00932185 -0.68768881 39.4375 1.1875 C42.39260659 3.27769734 43.43290808 4.74778716 45 8 C45.39440918 11.33226013 45.39440918 11.33226013 45.41992188 15.17358398 C45.42839142 15.87668701 45.43686096 16.57979004 45.44558716 17.30419922 C45.46890299 19.61835026 45.4699807 21.93183435 45.46875 24.24609375 C45.47585467 25.86125451 45.48355412 27.47641276 45.49182129 29.09156799 C45.50525346 32.4733075 45.50684052 35.85481359 45.50097656 39.23657227 C45.49508024 43.56223406 45.52567385 47.88677354 45.56609344 52.21221828 C45.59198961 55.54692072 45.5948462 58.88135354 45.59120178 62.21614265 C45.59289112 63.81050501 45.60251585 65.40488006 45.62034607 66.9991436 C45.64257717 69.23252578 45.63281675 71.46364457 45.61523438 73.69702148 C45.61728882 74.96545395 45.61934326 76.23388641 45.62145996 77.54075623 C44.79905478 82.11852498 43.25179532 83.7238896 40 87 C36.04741337 89.28833963 32.51094661 89.39569707 28 89 C24.42088762 87.55458923 21.4086052 86.0776622 19 83 C19 82.34 19 81.68 19 81 C18.54109375 81.40992188 18.0821875 81.81984375 17.609375 82.2421875 C16.99578125 82.78101563 16.3821875 83.31984375 15.75 83.875 C15.14671875 84.40867187 14.5434375 84.94234375 13.921875 85.4921875 C9.66523975 88.8317428 6.55789569 89.29497453 1.125 89.3125 C-0.06867188 89.32925781 -1.26234375 89.34601563 -2.4921875 89.36328125 C-7.89474429 88.8037737 -11.0237958 87.02057712 -14.75 83.125 C-18.33592834 78.14454397 -19.25043828 74.48052555 -19.2746582 68.36132812 C-19.2823246 67.39204628 -19.2823246 67.39204628 -19.29014587 66.40318298 C-19.30398246 64.27910966 -19.30308994 62.15536288 -19.30078125 60.03125 C-19.3046709 58.54821656 -19.30900612 57.06518422 -19.31376648 55.58215332 C-19.32121549 52.47872297 -19.32094662 49.37540641 -19.31567383 46.27197266 C-19.30987489 42.30071478 -19.32682641 38.32992264 -19.3500185 34.35874176 C-19.36476847 31.29776297 -19.36562595 28.2368961 -19.36250877 25.17588806 C-19.36302116 23.71189958 -19.36824331 22.24790469 -19.37832069 20.78395081 C-19.39069562 18.73521844 -19.38388877 16.68739039 -19.37231445 14.63867188 C-19.37294388 13.47460815 -19.3735733 12.31054443 -19.3742218 11.11120605 C-18.84817466 6.73775411 -17.23457401 4.1188327 -14 1.1875 C-9.37299365 -0.64402335 -4.91026046 -0.55462279 0 0 Z " fill="#5955DF" transform="translate(94,271)"/>
<path d="M0 0 C7.42543201 6.07535346 11.01390559 12.27886423 12.03491211 21.94824219 C12.14907596 24.65969496 12.16016335 27.34906173 12.125 30.0625 C12.13660156 30.97708984 12.14820313 31.89167969 12.16015625 32.83398438 C12.13870001 37.75103951 12.03087191 41.30495158 8.75 45.25 C5.8280231 46.71098845 3.25106525 46.36134901 -0.0078125 46.34765625 C-1.00238968 46.34553383 -1.00238968 46.34553383 -2.01705933 46.34336853 C-4.13641863 46.33776754 -6.25567259 46.325215 -8.375 46.3125 C-9.81119639 46.30748512 -11.24739444 46.30292219 -12.68359375 46.29882812 C-16.20580248 46.28864833 -19.72778321 46.26907338 -23.25 46.25 C-22.755 54.17 -22.755 54.17 -22.25 62.25 C-20.6 62.25 -18.95 62.25 -17.25 62.25 C-17.07984375 61.63511719 -16.9096875 61.02023437 -16.734375 60.38671875 C-14.7489196 53.76501378 -14.7489196 53.76501378 -12.3125 51.25 C-6.72846238 48.54258782 -1.39521973 48.53492676 4.5 50.5 C7.7750211 52.2634729 8.90944841 53.1226911 10.75 56.25 C11.75080002 62.5613515 11.43687126 68.93417518 8.13671875 74.50390625 C2.97552713 81.00264612 -4.43968721 84.54795807 -12.61206055 85.53540039 C-14.99885319 85.64988138 -17.36092212 85.66007618 -19.75 85.625 C-20.54019531 85.63660156 -21.33039063 85.64820313 -22.14453125 85.66015625 C-30.33933065 85.61991992 -37.37340665 83.76882641 -43.5625 78.1875 C-44.36300781 77.49527344 -45.16351563 76.80304688 -45.98828125 76.08984375 C-51.56241252 69.09089136 -52.85457445 61.48012766 -52.74609375 52.74609375 C-52.74754898 51.78276627 -52.74900421 50.81943878 -52.75050354 49.82691956 C-52.74885539 47.80588736 -52.73741703 45.78484118 -52.71655273 43.76391602 C-52.6875394 40.69167167 -52.69597957 37.62115154 -52.70898438 34.54882812 C-52.70274702 32.57290839 -52.69435611 30.59699402 -52.68359375 28.62109375 C-52.68652939 27.71459579 -52.68946503 26.80809784 -52.69248962 25.87413025 C-52.56180474 16.93137245 -50.54409228 9.63408224 -44.34765625 3.04296875 C-32.07890326 -7.44373073 -13.77487149 -7.4172385 0 0 Z M-21.25 16.25 C-23.49324836 18.06193006 -23.49324836 18.06193006 -23.4453125 20.6328125 C-23.42210937 21.53773438 -23.39890625 22.44265625 -23.375 23.375 C-23.35695313 24.28507812 -23.33890625 25.19515625 -23.3203125 26.1328125 C-23.29710937 26.83148438 -23.27390625 27.53015625 -23.25 28.25 C-20.94 28.25 -18.63 28.25 -16.25 28.25 C-16.22301811 26.62509046 -16.20361243 25.00005367 -16.1875 23.375 C-16.17589844 22.47007812 -16.16429687 21.56515625 -16.15234375 20.6328125 C-16.08750743 18.2331415 -16.08750743 18.2331415 -17.25 16.25 C-18.57 16.25 -19.89 16.25 -21.25 16.25 Z " fill="#5955DF" transform="translate(386.25,274.75)"/>
<path d="M0 0 C7.0383795 5.75867414 10.52873238 11.10067007 11.75 20.25 C11.98921053 23.70929755 12.08561329 27.15803217 12.125 30.625 C12.13901855 31.49342529 12.15303711 32.36185059 12.16748047 33.2565918 C12.13120899 38.05047279 11.90761267 41.38384986 8.75 45.25 C5.8280231 46.71098845 3.25106525 46.36134901 -0.0078125 46.34765625 C-1.00238968 46.34553383 -1.00238968 46.34553383 -2.01705933 46.34336853 C-4.13641863 46.33776754 -6.25567259 46.325215 -8.375 46.3125 C-9.81119639 46.30748512 -11.24739444 46.30292219 -12.68359375 46.29882812 C-16.20580248 46.28864833 -19.72778321 46.26907338 -23.25 46.25 C-22.755 54.17 -22.755 54.17 -22.25 62.25 C-20.6 62.58 -18.95 62.91 -17.25 63.25 C-17.07984375 62.56292969 -16.9096875 61.87585938 -16.734375 61.16796875 C-16.49203125 60.26691406 -16.2496875 59.36585938 -16 58.4375 C-15.76796875 57.54417969 -15.5359375 56.65085937 -15.296875 55.73046875 C-14.07863008 52.8439556 -12.89613313 51.85934412 -10.25 50.25 C-5.3357998 48.38599303 -0.41937625 48.87969752 4.5 50.4375 C8.20106528 52.50155563 9.34121995 53.2722681 10.75 57.25 C11.52493185 63.42039484 11.31947987 69.01896956 8.13671875 74.46875 C3.40241345 80.5499985 -2.91062728 83.45013587 -10.25 85.25 C-13.432105 85.6344838 -16.54796554 85.67201193 -19.75 85.625 C-20.54019531 85.63660156 -21.33039063 85.64820313 -22.14453125 85.66015625 C-30.33933065 85.61991992 -37.37340665 83.76882641 -43.5625 78.1875 C-44.36300781 77.49527344 -45.16351563 76.80304688 -45.98828125 76.08984375 C-51.61442903 69.02557874 -52.8582547 61.33724687 -52.78125 52.52734375 C-52.7850769 51.54182022 -52.78890381 50.55629669 -52.79284668 49.54090881 C-52.79554984 47.47281869 -52.78830152 45.40469343 -52.77148438 43.33666992 C-52.75002908 40.19176309 -52.7713531 37.04913436 -52.796875 33.90429688 C-52.79423189 31.88280752 -52.78910726 29.86131956 -52.78125 27.83984375 C-52.78934692 26.91147202 -52.79744385 25.98310028 -52.80578613 25.02659607 C-52.67520573 15.83011685 -49.47884761 8.70525592 -43.24609375 1.9765625 C-31.68327296 -8.02493806 -12.728527 -6.85382223 0 0 Z M-21.25 16.25 C-23.49324836 18.06193006 -23.49324836 18.06193006 -23.4453125 20.6328125 C-23.42210937 21.53773438 -23.39890625 22.44265625 -23.375 23.375 C-23.35695313 24.28507812 -23.33890625 25.19515625 -23.3203125 26.1328125 C-23.29710937 26.83148438 -23.27390625 27.53015625 -23.25 28.25 C-20.94 28.25 -18.63 28.25 -16.25 28.25 C-16.22301811 26.62509046 -16.20361243 25.00005367 -16.1875 23.375 C-16.17589844 22.47007812 -16.16429687 21.56515625 -16.15234375 20.6328125 C-16.08750743 18.2331415 -16.08750743 18.2331415 -17.25 16.25 C-18.57 16.25 -19.89 16.25 -21.25 16.25 Z " fill="#5955DF" transform="translate(533.25,274.75)"/>
<path d="M0 0 C1.12166565 -0.01606293 2.2433313 -0.03212585 3.39898682 -0.04867554 C8.53599238 -0.09307361 13.6729087 -0.13463804 18.81005859 -0.15722656 C21.52036415 -0.17054941 24.22991381 -0.19836902 26.93994141 -0.23925781 C30.84372875 -0.29815456 34.74715077 -0.31589976 38.65136719 -0.33056641 C39.86093079 -0.35323578 41.07049438 -0.37590515 42.31671143 -0.39926147 C51.6977797 -0.37569011 51.6977797 -0.37569011 55.38476562 2.53808594 C58.54724331 6.26788879 58.98343236 9.27561925 58.92089844 14.12646484 C58.44897775 17.54627366 56.84151816 19.61946579 54.63574219 22.19287109 C51.13089406 24.55067801 48.03074709 24.40077119 43.88574219 24.31787109 C42.71527344 24.29982422 41.54480469 24.28177734 40.33886719 24.26318359 C39.44683594 24.23998047 38.55480469 24.21677734 37.63574219 24.19287109 C37.64462463 25.2444339 37.65350708 26.2959967 37.66265869 27.37942505 C37.74379466 37.29617675 37.80373169 47.21286098 37.84299088 57.12986946 C37.86385311 62.22815932 37.89214601 67.32618093 37.9375 72.42431641 C37.98100615 77.34561673 38.00488956 82.26665924 38.01525116 87.18813705 C38.02263395 89.06441175 38.03705091 90.94067256 38.05866241 92.81683731 C38.08775996 95.44786158 38.09169557 98.07782473 38.08984375 100.70898438 C38.11141541 101.86884605 38.11141541 101.86884605 38.13342285 103.05213928 C38.09384302 108.25960566 36.90611178 111.17265647 33.63574219 115.19287109 C29.77467308 118.59969677 26.01629733 118.6470914 21.06933594 118.47802734 C16.2954492 117.91864736 13.54038969 116.17086839 10.32324219 112.69287109 C7.35169632 108.29058092 7.49816818 104.35237743 7.5222168 99.2331543 C7.52207077 98.42316986 7.52192474 97.61318542 7.52177429 96.77865601 C7.52247118 94.10029425 7.53025316 91.42200196 7.53808594 88.74365234 C7.53995091 86.88705992 7.54137444 85.030467 7.54237366 83.1738739 C7.54619259 78.28631228 7.55601758 73.39878035 7.56707764 68.51123047 C7.57730515 63.52425539 7.58187415 58.53727551 7.58691406 53.55029297 C7.59764038 43.76447263 7.61470935 33.97867433 7.63574219 24.19287109 C6.88228516 24.20737305 6.12882812 24.221875 5.35253906 24.23681641 C4.36318359 24.2480957 3.37382812 24.259375 2.35449219 24.27099609 C1.37416016 24.28549805 0.39382813 24.3 -0.61621094 24.31494141 C-4.19632286 24.15591014 -6.43810279 23.24117961 -9.36425781 21.19287109 C-12.75426986 17.42800195 -12.92477327 14.5939245 -12.79394531 9.67333984 C-12.09683039 5.6490855 -10.32492003 3.94205743 -7.36425781 1.19287109 C-4.78550817 -0.09650373 -2.88774086 0.03751038 0 0 Z " fill="#5955DF" transform="translate(431.3642578125,241.80712890625)"/>
<path d="M0 0 C4.03843343 2.60254599 6.29289779 5.25369336 7.8125 9.8125 C7.90634715 11.15699119 7.94731214 12.505597 7.95294189 13.85334778 C7.96150711 15.08340797 7.96150711 15.08340797 7.97024536 16.33831787 C7.97136322 17.23447815 7.97248108 18.13063843 7.97363281 19.05395508 C7.97859772 20.00060532 7.98356262 20.94725555 7.98867798 21.92259216 C8.00330111 25.05907922 8.01010196 28.19551569 8.015625 31.33203125 C8.02137644 33.51055401 8.02713417 35.68907676 8.03289795 37.86759949 C8.04340844 42.43818396 8.04925076 47.00875084 8.05273438 51.5793457 C8.05821842 57.43376842 8.08224449 63.28795848 8.11070633 69.14230824 C8.12933734 73.64361753 8.13453857 78.14487084 8.13607025 82.64621544 C8.13909638 84.80436156 8.14712354 86.96250671 8.16025543 89.12061501 C8.1773249 92.1415434 8.1754333 95.16190417 8.16894531 98.18286133 C8.1781601 99.07294891 8.18737488 99.9630365 8.1968689 100.88009644 C8.16282802 105.94421497 7.62976479 109.42845987 4.8125 113.8125 C1.18615898 117.16686544 -1.41820867 118.63904007 -6.375 119.125 C-10.93538892 118.75119763 -14.52197048 117.59352131 -18.1875 114.8125 C-21.93433555 110.16044968 -21.61923846 105.67411977 -21.59155273 99.97680664 C-21.59841599 98.99085007 -21.60527924 98.00489349 -21.61235046 96.98905945 C-21.63063528 93.73344477 -21.62677845 90.47831121 -21.62109375 87.22265625 C-21.62565474 84.9573094 -21.63096007 82.69196393 -21.63697815 80.42662048 C-21.64591258 75.67962013 -21.64348225 70.93278799 -21.63354492 66.18579102 C-21.62205517 60.10486607 -21.64226565 54.0245218 -21.67146206 47.94367313 C-21.68981487 43.26562313 -21.68953338 38.58771251 -21.68382454 33.90963554 C-21.68367121 31.66776146 -21.68972494 29.425878 -21.70211601 27.18403816 C-21.71700627 24.048185 -21.70636261 20.91340757 -21.68920898 17.77758789 C-21.69887695 16.85323944 -21.70854492 15.92889099 -21.71850586 14.97653198 C-21.65522281 9.44712265 -20.96645968 6.14500565 -17.1875 1.8125 C-11.33537335 -1.50002452 -6.36004118 -2.3694271 0 0 Z " fill="#5955DF" transform="translate(318.1875,241.1875)"/>
<path d="M0 0 C9.24 0 18.48 0 28 0 C28.33 13.86 28.66 27.72 29 42 C34.383125 41.95875 39.76625 41.9175 45.3125 41.875 C108.43958519 41.71979259 108.43958519 41.71979259 121 48 C121 57.57 121 67.14 121 77 C120.67 77 120.34 77 120 77 C120 68.75 120 60.5 120 52 C117.69 52.66 115.38 53.32 113 54 C93.81375815 57.34963044 74.33227626 57.4251326 54.92492676 57.26428223 C52.1884631 57.24521677 49.4520666 57.24116893 46.71554565 57.23743534 C33.32262299 57.21741807 19.93919517 57.04259045 6.5546875 56.54296875 C5.51069794 56.50419617 4.46670837 56.46542358 3.39108276 56.42547607 C-6.69796768 56.00433434 -16.36938021 55.2102066 -26 52 C-26 60.58 -26 69.16 -26 78 C-26.33 78 -26.66 78 -27 78 C-27 68.1 -27 58.2 -27 48 C-15 45 -15 45 0 44 C0 29.48 0 14.96 0 0 Z " fill="#AAF0CC" transform="translate(57,0)"/>
<path d="M0 0 C0.33 0 0.66 0 1 0 C1.04568727 12.43465912 0.93521552 24.85424137 0.6328125 37.28515625 C0.60345926 38.51612943 0.60345926 38.51612943 0.57351303 39.77197075 C0.47007362 44.10463968 0.36392867 48.43723178 0.25537109 52.76977539 C0.14543652 57.17845735 0.04493591 61.58730194 -0.05343437 65.99625492 C-0.1322754 69.45158968 -0.21818737 72.90672467 -0.3058815 76.36184502 C-0.34591909 77.98527327 -0.38345252 79.60876576 -0.41814804 81.23231697 C-0.60258745 89.74697158 -1.00254126 98.19345568 -1.89892578 106.66577148 C-1.97289518 107.39147119 -2.04686459 108.11717089 -2.12307549 108.86486149 C-4.1327562 126.3363015 -13.88924639 142.16537578 -27 153.625 C-44.88875578 167.61842338 -64.51164486 170.9664361 -86.74609375 168.6015625 C-104.23490924 165.23916851 -120.44389762 154.12543197 -131 140 C-143.21683954 120.72596344 -144.28495972 101.65952552 -144.8515625 79.41796875 C-144.91525506 77.1496636 -144.97966912 74.8813786 -145.04476929 72.6131134 C-145.21303176 66.68360165 -145.3715797 60.75386964 -145.52801514 54.82403564 C-145.68982377 48.7568738 -145.860944 42.68997509 -146.03125 36.62304688 C-146.36321274 24.74893543 -146.68489971 12.87457005 -147 1 C-145.56348932 1.47431423 -144.12736602 1.94980177 -142.69140625 2.42578125 C-141.89162354 2.69044189 -141.09184082 2.95510254 -140.26782227 3.2277832 C-137.80697287 4.06572772 -135.39726124 4.9946969 -133 6 C-133.81734619 6.51272461 -134.63469238 7.02544922 -135.47680664 7.55371094 C-138.28519406 9.79162052 -138.28519406 9.79162052 -138.52124023 13.14160156 C-138.49731365 14.47533401 -138.44452293 15.8087005 -138.37109375 17.140625 C-138.33972572 18.28739716 -138.33972572 18.28739716 -138.307724 19.45733643 C-138.25599532 21.25371889 -138.19252627 23.04978384 -138.12030029 24.84545898 C-137.984554 28.4050284 -137.89466146 31.96426464 -137.80908203 35.52539062 C-137.6141993 43.5107894 -137.37543928 51.49455922 -137.13116455 59.47857666 C-137.03949968 62.51085064 -136.95198705 65.54323895 -136.86443424 68.575634 C-136.77816712 71.54262704 -136.68909705 74.50953121 -136.59924126 77.47641754 C-136.55732497 78.871528 -136.51625075 80.26666407 -136.4761219 81.66182709 C-135.77360443 105.91297175 -134.40295691 127.1420784 -116 145 C-115.04480469 145.96873047 -115.04480469 145.96873047 -114.0703125 146.95703125 C-102.55205231 157.92566491 -86.384494 162.67052378 -70.75463867 162.47045898 C-53.7381212 161.79124727 -38.69202202 154.82553378 -26.66015625 142.88671875 C-16.09490935 131.42164172 -10.03479948 116.28674425 -9.41015625 100.765625 C-9.37334244 99.99196594 -9.33652863 99.21830688 -9.29859924 98.42120361 C-8.57993441 82.57587837 -8.32441674 66.71021947 -8.05004883 50.85229492 C-8.00038451 48.02191341 -7.94650977 45.19163109 -7.89257812 42.36132812 C-7.81106361 37.91160023 -7.75332357 33.46213461 -7.71389771 29.01184082 C-7.69637702 27.34468145 -7.67208439 25.67757874 -7.64083862 24.01062012 C-7.59942247 21.70470364 -7.58341207 19.39998866 -7.57421875 17.09375 C-7.55963623 15.79115234 -7.54505371 14.48855469 -7.5300293 13.14648438 C-7.67237847 9.90528481 -7.67237847 9.90528481 -10.02661133 8.18164062 C-10.67782959 7.79169922 -11.32904785 7.40175781 -12 7 C-12 6.34 -12 5.68 -12 5 C-11.21753906 4.72285156 -10.43507812 4.44570312 -9.62890625 4.16015625 C-8.61699219 3.79792969 -7.60507813 3.43570313 -6.5625 3.0625 C-5.55316406 2.70285156 -4.54382813 2.34320313 -3.50390625 1.97265625 C-1.09686255 1.23122361 -1.09686255 1.23122361 0 0 Z " fill="#F3DCFE" transform="translate(177,77)"/>
<path d="M0 0 C9.24 0 18.48 0 28 0 C28 16.5 28 33 28 50 C19.09 50 10.18 50 1 50 C0.35226388 46.11358328 -0.12452969 43.08727339 -0.11352539 39.27978516 C-0.11344986 38.39932526 -0.11337433 37.51886536 -0.11329651 36.61172485 C-0.10813522 35.68024628 -0.10297394 34.7487677 -0.09765625 33.7890625 C-0.0962413 32.82092621 -0.09482635 31.85278992 -0.09336853 30.85531616 C-0.08779365 27.77851201 -0.07524577 24.70178197 -0.0625 21.625 C-0.05748175 19.53255314 -0.05291941 17.44010513 -0.04882812 15.34765625 C-0.03868551 10.23171965 -0.01910518 5.11594231 0 0 Z " fill="#C7F293" transform="translate(57,0)"/>
<path d="M0 0 C2.9375 2.125 2.9375 2.125 5 5 C5.56384126 8.94688882 5.37334779 11.19996903 3.6875 14.8125 C2 17 2 17 -1 19 C-5.17262337 19.46362482 -7.28714371 19.4494094 -10.875 17.1875 C-13.61726103 14.36458424 -13.94333136 12.5100178 -14.375 8.625 C-14 5 -14 5 -11.625 2.125 C-7.34439753 -1.34024962 -5.40195142 -1.28181898 0 0 Z " fill="#8B6B84" transform="translate(88,210)"/>
<path d="M0 0 C4.92293178 0.4842228 6.64569948 1.59028719 9.8125 5.375 C10.61597713 8.54873465 10.57285188 11.19534669 9.8125 14.375 C7.29953032 18.03022863 5.57655021 19.1249472 1.375 20.5 C-2.36969825 20.36860708 -4.28811492 19.72973008 -7.01171875 17.1015625 C-9.27346884 13.7803215 -9.76564577 10.31495636 -9.1875 6.375 C-6.8125 3.375 -6.8125 3.375 -4.1875 1.375 C-3.1875 0.375 -3.1875 0.375 0 0 Z " fill="#8D6D85" transform="translate(100.1875,193.625)"/>
<path d="M0 0 C2.9375 2.125 2.9375 2.125 5 5 C5.55919321 8.91435244 5.35457139 11.20221437 3.75 14.8125 C1.09327965 18.13340043 -0.75106183 18.84056108 -4.9375 19.375 C-8.75758307 18.90723473 -10.30522616 17.69477384 -13 15 C-14.21260877 11.36217368 -14.39544552 8.82264001 -14 5 C-9.45613306 -0.5004705 -6.96669891 -1.653115 0 0 Z " fill="#8B6A83" transform="translate(109,217)"/>
<path d="M0 0 C2.69990662 1.79993774 4.5418865 3.083773 6 6 C6.50698467 11.15434412 6.50698467 11.15434412 6 14 C3.5625 16.9375 3.5625 16.9375 1 19 C0.67 19.33 0.34 19.66 0 20 C-2.95224072 20.41194057 -5.09957373 20.5560236 -7.6953125 18.953125 C-11.27979809 16.00934457 -12.79667294 14.32162589 -13.5 9.75 C-12.96813808 5.76103559 -12.67099364 5.15526062 -9.875 2.5625 C-6.50604447 0.0289911 -4.26217791 -0.92656042 0 0 Z " fill="#8E6D85" transform="translate(146,194)"/>
<path d="M0 0 C3.13836313 2.02685952 4.65870267 3.45297192 5.4765625 7.16015625 C5.74016844 11.31541824 5.31813896 13.49713519 3.0625 17.0625 C-1.05275854 19.66603091 -4.25387412 19.92261139 -9 19 C-11.89115314 17.33758695 -12.69207311 16.08584747 -13.59375 12.90625 C-14.31784262 8.7287926 -14.42885043 6.7098214 -12.1875 3 C-8.4721329 -0.39690707 -4.90411877 -0.79703651 0 0 Z " fill="#8D6C84" transform="translate(71,195)"/>
<path d="M0 0 C3.4375 2 3.4375 2 6 5 C6.80673437 8.60531733 6.36337823 11.84930226 5.25 15.375 C3.68180488 17.41365366 2.37818237 18.03439049 0 19 C-4.56301006 19.31330527 -8.01400713 18.81765262 -11.5625 15.875 C-13.38719803 12.22560394 -13.57650862 10.03556032 -13 6 C-9.33404658 0.37887142 -6.67491925 -0.66749193 0 0 Z " fill="#8A6A82" transform="translate(130,211)"/>
<path d="M0 0 C2.5 0.25 2.5 0.25 4.5 2.25 C4.95027679 5.73053949 4.82407972 9.24366192 4.8125 12.75 C4.82861328 13.72582031 4.84472656 14.70164063 4.86132812 15.70703125 C4.86197266 16.63902344 4.86261719 17.57101563 4.86328125 18.53125 C4.86626221 19.38783203 4.86924316 20.24441406 4.87231445 21.12695312 C4.6880188 22.17786133 4.6880188 22.17786133 4.5 23.25 C1.5 25.25 1.5 25.25 -2.5 25.25 C-4.6097676 22.0853486 -4.75552605 21.27606227 -4.765625 17.65234375 C-4.76820312 16.76869141 -4.77078125 15.88503906 -4.7734375 14.97460938 C-4.76570313 14.05486328 -4.75796875 13.13511719 -4.75 12.1875 C-4.75773437 11.26388672 -4.76546875 10.34027344 -4.7734375 9.38867188 C-4.77085938 8.50630859 -4.76828125 7.62394531 -4.765625 6.71484375 C-4.76336914 5.906521 -4.76111328 5.09819824 -4.75878906 4.26538086 C-4.34451792 1.03914667 -3.1415024 0.31415024 0 0 Z " fill="#3F3B40" transform="translate(74.5,116.75)"/>
<path d="M0 0 C2.375 0.8125 2.375 0.8125 3.375 2.8125 C3.61299705 6.1404587 3.56018365 9.47696087 3.5625 12.8125 C3.57474609 13.740625 3.58699219 14.66875 3.59960938 15.625 C3.60250977 16.9553125 3.60250977 16.9553125 3.60546875 18.3125 C3.60957764 19.1271875 3.61368652 19.941875 3.61791992 20.78125 C3.375 22.8125 3.375 22.8125 1.375 24.8125 C-1.125 25.0625 -1.125 25.0625 -3.625 24.8125 C-6.50095556 21.93654444 -5.91566223 19.60701445 -5.94726562 15.67382812 C-5.94404297 14.75021484 -5.94082031 13.82660156 -5.9375 12.875 C-5.95361328 11.95525391 -5.96972656 11.03550781 -5.98632812 10.08789062 C-5.98697266 9.20423828 -5.98761719 8.32058594 -5.98828125 7.41015625 C-5.99126221 6.60070557 -5.99424316 5.79125488 -5.99731445 4.95727539 C-5.34878064 1.22129533 -3.77155715 -0.26939694 0 0 Z " fill="#3F3C41" transform="translate(138.625,116.1875)"/>
<path d="M0 0 C5.28 0 10.56 0 16 0 C15 5 15 5 13.3125 6.8125 C10.21737291 8.40188959 8.43979993 8.56159999 5 8 C2.125 5.6875 2.125 5.6875 0 3 C0 2.01 0 1.02 0 0 Z " fill="#FC6B68" transform="translate(98,148)"/>
<path d="M0 0 C3.29714793 0.32971479 4.6226839 0.6226839 7 3 C7.25 5.5 7.25 5.5 7 8 C5 10 5 10 2 10.3125 C1.01 10.209375 0.02 10.10625 -1 10 C-3 7 -3 7 -2.75 4.4375 C-2 2 -2 2 0 0 Z " fill="#FDA6C1" transform="translate(58,142)"/>
<path d="M0 0 C2.5 0.25 2.5 0.25 4.5 2.25 C4.8125 5.25 4.8125 5.25 4.5 8.25 C1.5 10.25 1.5 10.25 -1.0625 10 C-3.5 9.25 -3.5 9.25 -5.5 7.25 C-5.08994391 3.14943907 -4.53376372 0.45337637 0 0 Z " fill="#FDA6C1" transform="translate(151.5,141.75)"/>
</svg>
