<?xml version="1.0" standalone="no"?>
<!DOCTYPE svg PUBLIC "-//W3C//DTD SVG 20010904//EN"
 "http://www.w3.org/TR/2001/REC-SVG-20010904/DTD/svg10.dtd">
<svg version="1.0" xmlns="http://www.w3.org/2000/svg"
 width="300.000000pt" height="300.000000pt" viewBox="0 0 300.000000 300.000000"
 preserveAspectRatio="xMidYMid meet">
<metadata>
Created by potrace 1.10, written by Peter Selinger 2001-2011
</metadata>
<g transform="translate(0.000000,300.000000) scale(0.100000,-0.100000)"
fill="#000000" stroke="none">
<path d="M747 2251 l-748 -747 746 -747 c410 -411 749 -747 753 -747 4 0 342
335 751 744 647 647 743 747 732 760 -10 12 -1473 1473 -1484 1483 -1 1 -339
-335 -750 -746z m1491 -25 c391 -394 712 -720 712 -724 0 -17 -1440 -1443
-1455 -1440 -18 4 -1445 1427 -1445 1442 0 6 325 335 722 732 562 563 725 721
737 714 9 -5 337 -331 729 -724z"/>
<path d="M1419 2446 c-2 -2 -31 -7 -63 -11 -225 -25 -472 -173 -614 -365 -67
-91 -142 -242 -156 -312 -2 -13 -11 -53 -19 -90 -17 -81 -22 -247 -8 -309 5
-24 12 -55 15 -69 38 -179 134 -350 267 -475 149 -139 328 -228 509 -253 70
-9 241 -9 300 0 204 32 434 159 561 309 25 30 59 75 77 100 29 43 102 189 111
220 2 8 13 48 24 89 29 107 28 332 -1 442 -49 180 -133 329 -257 451 -145 144
-320 231 -530 263 -85 13 -207 19 -216 10z m334 -60 c196 -58 357 -169 479
-329 309 -410 225 -992 -187 -1297 -172 -127 -390 -191 -604 -176 -388 25
-717 289 -826 661 -49 166 -45 384 10 544 108 317 365 545 695 616 106 23 323
13 433 -19z"/>
<path d="M1375 2320 c-94 -15 -164 -38 -255 -86 -167 -86 -278 -199 -360 -369
-68 -140 -84 -212 -83 -370 0 -111 4 -143 27 -218 52 -174 142 -310 278 -419
235 -190 559 -235 843 -115 186 78 350 239 432 425 90 203 87 479 -6 679 -106
224 -316 399 -553 457 -83 21 -242 28 -323 16z m277 -40 c273 -44 515 -261
606 -540 42 -128 52 -267 27 -385 -35 -167 -109 -307 -221 -422 -227 -230
-589 -298 -884 -167 -384 170 -569 591 -434 992 39 116 97 206 198 307 191
190 427 262 708 215z"/>
<path d="M846 1729 c-57 -14 -76 -35 -76 -83 0 -45 6 -58 33 -72 16 -9 15 -13
-14 -44 -54 -61 -63 -114 -29 -188 26 -57 90 -88 159 -77 25 4 81 7 124 6 93
-2 127 13 127 58 0 44 11 44 54 2 47 -45 115 -71 184 -71 57 0 121 17 144 37
15 14 20 13 44 -6 32 -25 109 -29 141 -6 20 14 22 26 25 140 3 134 15 169 44
131 10 -15 14 -51 14 -136 0 -139 7 -150 86 -150 84 0 88 8 92 158 3 108 6
132 19 137 29 10 35 -11 41 -140 3 -90 9 -131 19 -141 23 -22 118 -19 143 6
18 18 20 33 20 163 0 163 -7 198 -51 243 -44 46 -99 53 -167 24 l-51 -22 -56
23 c-51 21 -60 22 -98 10 -45 -14 -52 -14 -137 -5 -47 5 -59 2 -79 -15 -29
-25 -22 -25 -71 0 -98 51 -241 27 -313 -53 l-38 -42 -24 30 c-13 16 -24 32
-25 35 0 3 -18 16 -41 28 -47 27 -176 37 -243 20z m231 -42 c54 -29 61 -55 64
-233 l2 -159 -64 0 c-55 0 -64 2 -61 18 4 22 0 21 -40 -3 -22 -13 -51 -20 -86
-20 -48 0 -58 4 -88 34 -30 30 -34 40 -34 89 0 91 50 129 184 143 36 4 66 10
66 13 0 4 -6 15 -13 25 -19 26 -87 31 -146 12 -27 -9 -52 -16 -55 -16 -3 0 -6
22 -6 50 0 46 2 50 28 56 15 3 32 8 37 10 27 10 182 -4 212 -19z m438 2 c24
-12 27 -20 29 -66 2 -60 -8 -66 -54 -32 -17 13 -45 22 -70 23 -35 1 -46 -4
-71 -32 -25 -27 -29 -41 -29 -88 0 -49 4 -59 30 -86 28 -28 35 -30 81 -26 32
3 58 13 72 27 37 34 45 27 42 -36 -2 -55 -4 -58 -35 -71 -40 -16 -155 -17
-194 -2 -85 32 -125 95 -126 198 0 101 50 174 140 201 45 13 149 8 185 -10z
m395 6 c16 -8 31 -24 35 -35 6 -20 25 -28 25 -10 0 16 86 60 119 60 46 0 86
-24 105 -64 13 -27 16 -67 16 -195 l0 -161 -65 0 -65 0 0 143 c0 98 -4 147
-12 155 -15 15 -53 16 -79 2 -17 -10 -19 -23 -19 -155 l0 -145 -65 0 -65 0 0
143 c0 98 -4 147 -12 155 -15 15 -53 15 -79 1 -19 -10 -20 -18 -16 -155 l5
-145 -64 3 -65 3 -2 203 -2 202 67 0 c61 0 66 -1 61 -20 -7 -26 -2 -25 43 5
42 29 91 32 134 10z m-428 -131 c32 -16 64 -18 73 -4 4 6 11 8 16 5 12 -8 12
-132 -1 -140 -5 -3 -10 -2 -10 4 0 20 -39 21 -72 1 -69 -42 -127 -19 -135 53
-11 92 42 125 129 81z"/>
<path d="M930 1467 c-19 -10 -25 -20 -25 -47 0 -33 2 -35 37 -38 56 -5 76 10
76 58 1 38 0 40 -31 40 -18 0 -43 -6 -57 -13z m43 -48 c-7 -7 -20 -8 -30 -5
-17 7 -17 8 1 22 23 17 48 2 29 -17z"/>
</g>
</svg>
