<?xml version="1.0" standalone="no"?>
<!DOCTYPE svg PUBLIC "-//W3C//DTD SVG 20010904//EN"
 "http://www.w3.org/TR/2001/REC-SVG-20010904/DTD/svg10.dtd">
<svg version="1.0" xmlns="http://www.w3.org/2000/svg"
 width="920.000000pt" height="365.000000pt" viewBox="0 0 920.000000 365.000000"
 preserveAspectRatio="xMidYMid meet">

<g transform="translate(0.000000,365.000000) scale(0.100000,-0.100000)"
fill="#000000" stroke="none">
<path d="M466 3019 c-28 -26 -35 -38 -26 -44 8 -5 11 -4 6 3 -3 6 -2 13 3 16
5 4 8 -2 7 -11 -2 -10 -7 -18 -12 -18 -14 -1 -74 -35 -74 -42 0 -3 14 -3 31 1
25 5 30 3 25 -9 -6 -17 9 -21 19 -5 11 18 23 11 33 -20 10 -28 0 -51 -13 -30
-3 5 -12 10 -18 10 -7 0 -6 -4 3 -10 10 -6 11 -10 3 -10 -7 0 -12 -3 -12 -7 1
-5 1 -16 0 -27 -1 -15 -4 -16 -16 -6 -11 9 -15 9 -15 1 0 -6 -10 -16 -22 -21
-19 -7 -19 -9 -5 -9 10 -1 15 -6 12 -11 -4 -7 2 -9 19 -4 21 5 26 3 26 -13 0
-11 -8 -30 -19 -41 -20 -24 -51 -30 -51 -10 0 9 -3 9 -12 0 -7 -7 -25 -12 -42
-12 -38 0 -31 -7 14 -13 19 -2 34 -9 33 -16 -2 -6 2 -11 9 -11 6 0 3 -10 -8
-22 -16 -17 -16 -20 -3 -15 9 3 21 1 27 -5 6 -6 17 1 31 21 21 29 21 31 4 32
-12 1 -10 3 7 8 21 6 25 13 25 44 0 20 3 37 7 37 4 0 10 10 14 23 4 12 15 28
25 35 14 9 17 20 12 42 -6 33 10 40 48 20 24 -13 24 -29 2 -47 -14 -11 -14
-13 -3 -10 8 2 20 13 26 25 6 13 15 26 19 30 5 4 5 1 0 -7 -6 -10 -4 -12 5 -6
14 9 12 -4 -12 -63 -11 -28 -11 -34 2 -42 10 -6 16 -5 18 3 5 23 41 38 62 27
29 -15 22 7 -10 37 -14 12 -19 23 -12 23 6 0 12 10 12 23 0 16 -3 18 -9 8 -7
-10 -13 -11 -30 -2 -12 7 -26 9 -31 6 -10 -6 -54 57 -71 102 -7 19 -6 29 2 37
9 8 10 8 6 0 -4 -6 3 -20 16 -30 12 -10 16 -12 10 -4 -7 8 -13 22 -13 32 0 10
-8 22 -17 25 -10 4 -20 9 -23 13 -3 3 -22 -11 -44 -31z"/>
<path d="M596 3023 c4 -21 9 -42 13 -48 3 -5 4 -18 3 -27 -4 -22 39 -34 67
-18 30 15 26 30 -7 25 -27 -3 -29 -1 -29 31 0 33 1 34 22 20 19 -12 26 -13 48
-1 14 7 29 10 33 7 4 -4 4 -2 1 4 -3 6 -19 9 -35 6 -18 -2 -42 4 -63 17 -51
31 -61 28 -53 -16z"/>
<path d="M370 3030 c-23 -7 -23 -8 -3 -9 12 -1 23 -6 25 -12 2 -6 14 -2 28 10
l25 20 -25 0 c-14 -1 -36 -5 -50 -9z"/>
<path d="M690 2890 c0 -5 9 -18 19 -27 11 -9 17 -21 14 -26 -3 -6 -1 -7 6 -3
6 4 10 15 9 23 -2 9 5 17 15 19 35 5 31 15 -4 13 -19 -2 -40 1 -47 5 -7 4 -12
2 -12 -4z"/>
<path d="M713 2782 c3 -19 26 -54 28 -41 0 2 2 12 4 22 2 9 -1 15 -5 12 -5 -3
-13 3 -19 12 -10 16 -10 15 -8 -5z"/>
<path d="M340 2750 c-9 -6 -10 -10 -3 -10 6 0 15 5 18 10 8 12 4 12 -15 0z"/>
<path d="M529 2678 c-24 -29 -36 -47 -27 -40 11 9 18 10 23 2 3 -5 1 -10 -4
-10 -6 0 -11 -7 -11 -15 0 -9 -20 -30 -45 -47 -25 -17 -43 -34 -40 -36 3 -3
15 3 27 14 14 12 18 13 10 3 -6 -9 -8 -20 -4 -24 4 -5 1 -5 -7 0 -11 6 -13 3
-9 -13 4 -14 2 -20 -5 -15 -7 4 -8 0 -4 -13 7 -18 7 -19 -7 0 -14 18 -15 17
-22 -9 -5 -20 -9 -23 -15 -13 -6 10 -9 10 -9 1 0 -7 -4 -13 -10 -13 -5 0 -9 4
-7 9 1 5 -2 9 -8 10 -5 1 -10 -2 -10 -6 0 -17 -17 -33 -35 -33 -10 0 -21 -4
-24 -9 -4 -5 6 -7 21 -4 41 7 85 7 110 -2 17 -5 28 -1 46 19 31 33 63 33 100
-1 22 -21 28 -23 24 -10 -4 10 -7 23 -7 28 0 6 -4 7 -10 4 -5 -3 -10 0 -10 8
0 8 -9 26 -21 41 -27 34 -17 33 17 -1 28 -29 18 -10 -24 41 l-24 30 23 17 c16
12 29 15 40 9 22 -12 30 -2 23 26 -5 18 -2 24 9 24 9 0 18 -4 22 -10 3 -5 12
-7 19 -4 8 3 17 1 21 -5 4 -8 11 -7 21 3 18 19 18 30 -1 23 -8 -4 -17 -3 -19
2 -8 12 27 10 42 -2 10 -8 16 -7 23 4 5 8 9 17 9 20 0 12 -53 29 -71 24 -10
-3 -32 1 -48 9 -17 9 -34 16 -39 16 -5 0 -29 -24 -53 -52z m201 -3 c0 -12 -19
-12 -23 0 -4 9 -1 12 9 8 7 -3 14 -7 14 -8z"/>
<path d="M8585 2654 c3 -25 7 -50 11 -55 9 -15 61 -10 68 6 4 10 -1 14 -16 12
-15 -1 -22 5 -24 21 -3 19 -1 22 20 16 14 -3 33 -1 43 5 15 9 13 10 -17 11
-19 0 -44 7 -54 15 -31 23 -36 18 -31 -31z"/>
<path d="M8469 2653 c-17 -21 -42 -44 -53 -51 -20 -12 -20 -13 7 -9 23 4 27 1
22 -12 -5 -13 -4 -13 6 -4 16 16 39 -1 39 -29 0 -17 -3 -18 -14 -9 -12 10 -15
8 -18 -14 -2 -14 -7 -25 -12 -24 -9 1 -26 -20 -26 -33 0 -4 6 -5 14 -2 7 3 16
-1 19 -9 8 -22 -21 -58 -46 -56 -12 1 -33 1 -47 0 -19 -1 -22 -3 -10 -10 8 -6
18 -7 22 -5 4 3 8 0 8 -6 0 -6 5 -8 12 -4 7 5 9 0 6 -14 -7 -26 27 -38 37 -13
3 9 5 17 3 18 -2 1 5 8 15 15 10 7 19 25 21 38 3 32 22 76 34 84 6 3 8 15 5
25 -6 24 6 31 35 20 24 -9 30 -34 10 -42 -10 -4 -10 -6 0 -6 8 -1 16 8 19 19
3 11 9 20 14 20 13 0 11 -12 -6 -54 -13 -31 -13 -36 -1 -36 8 0 16 5 18 12 6
18 59 17 78 -1 9 -9 15 -20 12 -25 -3 -5 0 -6 6 -2 7 4 12 8 12 10 0 8 -38 46
-46 46 -25 1 -36 18 -25 39 10 18 9 21 -6 19 -57 -4 -85 20 -108 93 -7 21 -6
22 9 10 15 -12 16 -12 9 5 -6 19 -22 34 -34 34 -4 0 -22 -17 -40 -37z"/>
<path d="M8396 2671 c-19 -7 -19 -8 2 -13 11 -3 29 0 39 8 17 13 17 13 -2 13
-11 0 -29 -4 -39 -8z"/>
<path d="M320 2665 c0 -7 30 -13 34 -7 3 4 -4 9 -15 9 -10 1 -19 0 -19 -2z"/>
<path d="M318 2573 c7 -3 16 -2 19 1 4 3 -2 6 -13 5 -11 0 -14 -3 -6 -6z"/>
<path d="M600 2552 c0 -9 6 -12 16 -8 8 3 12 2 9 -4 -3 -6 -2 -10 3 -10 10 0
58 -100 54 -113 -5 -17 9 -45 25 -51 13 -5 14 -4 3 9 -19 23 -5 45 31 45 28 0
30 2 18 16 -7 9 -18 26 -24 38 -6 11 -19 20 -28 20 -9 -1 -17 5 -17 13 0 8 -5
11 -11 7 -11 -7 -29 12 -29 31 0 6 5 3 10 -5 9 -13 10 -13 10 0 0 13 1 13 10
0 6 -9 10 -10 10 -3 0 17 -20 27 -57 29 -23 0 -33 -4 -33 -14z"/>
<path d="M8660 2555 c0 -5 9 -16 20 -23 17 -10 20 -10 20 3 0 8 8 15 17 15 28
0 6 12 -26 14 -17 1 -31 -3 -31 -9z"/>
<path d="M8529 2388 c-18 -24 -26 -37 -17 -30 14 11 16 11 12 -5 -3 -10 -15
-26 -27 -36 -12 -10 -33 -26 -47 -37 -14 -11 -20 -19 -15 -18 10 3 15 -4 15
-22 0 -5 -4 -9 -9 -7 -5 1 -17 -7 -26 -18 -9 -11 -14 -15 -11 -9 3 7 0 14 -8
17 -8 3 -16 -2 -19 -14 -3 -11 -14 -19 -25 -19 -12 0 -23 -4 -27 -9 -3 -6 4
-7 17 -4 13 4 46 7 74 7 34 1 56 7 68 19 22 22 28 21 59 -3 34 -27 41 -25 21
5 -8 13 -13 28 -10 33 3 5 -3 20 -14 32 -11 13 -20 29 -20 36 0 15 35 28 51
18 9 -5 10 1 5 20 -7 27 -6 28 26 21 18 -4 36 -13 40 -19 6 -8 8 -8 8 1 0 11
37 29 52 25 4 -1 5 5 2 13 -4 8 -16 17 -28 19 -11 3 -32 7 -46 10 -14 2 -34 7
-46 11 -17 5 -28 -2 -55 -37z m161 -2 c0 -7 -40 -14 -44 -7 -3 4 6 8 20 9 13
1 24 0 24 -2z"/>
<path d="M520 2400 c0 -5 -10 -10 -22 -10 -34 0 -110 -25 -102 -33 4 -4 -1
-17 -12 -29 -15 -18 -16 -20 -1 -9 12 10 17 10 17 2 0 -7 6 -9 13 -6 6 4 2 -2
-10 -13 -14 -12 -18 -23 -12 -29 6 -6 4 -10 -5 -10 -8 0 -15 3 -14 6 3 26 -5
32 -14 11 -15 -34 -18 -50 -9 -50 4 0 13 6 20 13 11 10 11 8 0 -9 -7 -12 -31
-31 -53 -42 l-41 -21 41 3 c33 3 49 11 77 42 20 22 37 42 37 47 0 4 10 7 21 7
16 0 20 -5 16 -19 -3 -14 0 -17 14 -14 23 6 26 -19 4 -41 -16 -16 -20 -30 -6
-22 5 4 8 -2 6 -11 -2 -10 -4 -22 -4 -28 -1 -7 -4 -7 -9 0 -13 19 -30 15 -25
-5 3 -12 0 -20 -6 -20 -7 0 -9 6 -6 13 7 14 -14 -12 -32 -40 -12 -17 -12 -17
-6 1 6 20 -14 39 -32 28 -5 -3 -15 -7 -21 -8 -7 -1 -21 -10 -31 -20 -11 -11
-28 -25 -39 -32 -18 -12 -17 -12 6 -7 14 4 32 9 41 12 9 2 23 -2 30 -9 11 -13
18 -10 46 19 39 38 53 42 53 13 0 -11 3 -20 8 -20 4 0 13 -10 21 -22 12 -20
12 -21 0 -12 -8 7 -22 8 -34 4 -18 -7 -18 -8 8 -15 22 -6 27 -13 27 -40 0 -29
4 -33 41 -44 23 -7 47 -15 55 -18 9 -3 14 2 14 15 0 11 -7 22 -15 26 -8 3 -15
11 -15 18 0 8 3 9 8 3 4 -5 16 -17 26 -25 18 -14 19 -14 9 5 -6 11 -28 37 -49
58 -20 20 -34 38 -31 38 4 1 15 2 25 3 9 1 23 5 29 9 14 9 47 -6 80 -35 25
-23 48 -16 34 10 -6 11 -4 20 7 29 15 12 14 16 -18 44 -19 18 -28 28 -21 24
16 -9 -23 50 -39 60 -18 11 -10 27 9 22 14 -3 18 -1 14 9 -4 12 5 14 48 10 47
-5 52 -4 37 8 -10 7 -18 18 -18 24 0 6 -5 14 -11 18 -8 5 -10 -1 -7 -19 5 -27
-16 -28 -26 -1 -3 8 -12 14 -21 14 -8 0 -14 3 -14 8 4 21 -3 24 -16 6 -13 -18
-14 -18 -8 5 4 17 3 22 -5 17 -7 -4 -12 -2 -12 4 0 6 10 15 23 20 12 5 16 9 8
9 -7 1 -29 15 -48 31 -35 31 -53 38 -53 20z m80 -57 c0 -2 -10 2 -22 9 -13 7
-27 11 -31 10 -5 -1 -6 2 -2 8 5 9 55 -15 55 -27z m-164 5 c4 -7 3 -8 -4 -4
-7 4 -12 2 -12 -5 0 -7 -3 -10 -6 -6 -6 5 3 27 11 27 2 0 7 -5 11 -12z m224
-88 c0 -5 -2 -10 -4 -10 -3 0 -8 5 -11 10 -3 6 -1 10 4 10 6 0 11 -4 11 -10z"/>
<path d="M808 2373 c7 -3 16 -2 19 1 4 3 -2 6 -13 5 -11 0 -14 -3 -6 -6z"/>
<path d="M738 2333 c7 -3 16 -2 19 1 4 3 -2 6 -13 5 -11 0 -14 -3 -6 -6z"/>
<path d="M760 2305 c-7 -9 -10 -19 -6 -22 10 -11 37 -12 30 -2 -3 5 2 12 11
15 13 6 14 8 3 15 -18 12 -24 11 -38 -6z m20 -10 c-7 -9 -15 -13 -17 -11 -7 7
7 26 19 26 6 0 6 -6 -2 -15z"/>
<path d="M8348 2303 c7 -3 16 -2 19 1 4 3 -2 6 -13 5 -11 0 -14 -3 -6 -6z"/>
<path d="M8590 2290 c0 -5 6 -13 13 -17 16 -10 58 -89 50 -96 -2 -3 0 -14 6
-24 10 -17 10 -16 11 5 0 22 7 26 45 23 15 -1 17 0 7 7 -8 5 -19 20 -26 33 -6
13 -17 25 -24 25 -7 1 -15 3 -19 4 -5 1 -11 2 -14 2 -3 -1 -6 6 -6 14 0 11 7
14 21 10 21 -5 21 -5 2 9 -22 17 -66 20 -66 5z"/>
<path d="M311 2227 c-13 -21 -12 -21 5 -5 10 10 16 20 13 22 -3 3 -11 -5 -18
-17z"/>
<path d="M1410 2213 c-24 -14 -24 -14 -2 -10 14 3 22 0 22 -9 0 -8 -5 -14 -11
-14 -5 0 -8 -4 -4 -10 11 -17 33 1 37 31 5 32 -4 35 -42 12z"/>
<path d="M1484 2205 c9 -24 -14 -63 -41 -70 -13 -3 -21 -10 -18 -15 3 -5 -7
-16 -22 -24 -15 -8 -24 -15 -20 -16 5 0 17 5 27 10 13 7 21 7 25 0 10 -16 25
-12 19 5 -7 17 12 45 30 45 12 0 36 -45 36 -67 0 -8 7 -28 16 -45 15 -29 18
-30 29 -15 7 9 19 17 28 17 9 0 18 4 21 8 3 5 -10 7 -29 6 -19 -2 -38 3 -45
11 -13 15 -4 39 11 30 19 -12 8 7 -18 31 -26 25 -27 26 -9 39 10 8 25 11 34 8
8 -4 0 8 -18 25 -35 34 -66 43 -56 17z"/>
<path d="M1540 2216 c0 -2 7 -6 15 -10 8 -3 15 -1 15 4 0 6 -7 10 -15 10 -8 0
-15 -2 -15 -4z"/>
<path d="M730 2201 c0 -13 29 -35 37 -28 7 8 -15 37 -28 37 -5 0 -9 -4 -9 -9z"/>
<path d="M785 2180 c-3 -5 -1 -18 5 -27 10 -17 10 -17 8 1 -2 11 4 20 15 21 9
2 15 -1 11 -6 -3 -5 -10 -7 -15 -4 -5 3 -6 -1 -3 -10 6 -14 8 -14 20 2 7 10
14 21 14 26 0 11 -48 9 -55 -3z"/>
<path d="M310 2159 c0 -5 -10 -14 -22 -19 -17 -6 -18 -9 -6 -9 11 -1 16 -8 13
-21 -3 -17 -1 -18 15 -8 17 11 17 13 2 25 -16 12 -16 12 0 13 23 0 32 16 13
24 -8 3 -15 1 -15 -5z"/>
<path d="M8516 2163 c-4 -4 -13 -8 -19 -8 -39 -2 -73 -18 -84 -41 -10 -22 -10
-24 3 -14 9 8 14 9 14 2 0 -6 -4 -14 -10 -17 -5 -3 -10 -11 -10 -17 0 -6 7 -5
18 3 14 11 13 10 -2 -9 -20 -23 -27 -27 -25 -14 4 25 -3 34 -12 14 -5 -14 -13
-20 -20 -16 -8 4 -9 3 -5 -5 4 -6 12 -9 17 -6 5 4 9 0 9 -8 0 -7 -11 -19 -24
-25 -13 -6 -23 -18 -23 -28 1 -11 -8 -20 -23 -25 -25 -7 -25 -7 -2 -8 13 -1
20 -5 17 -11 -4 -6 -1 -9 6 -8 24 6 19 -22 -5 -28 -14 -3 -23 -10 -20 -15 2
-5 13 -3 23 3 15 9 25 8 48 -7 15 -10 25 -15 21 -11 -7 8 30 56 44 56 4 0 8
-7 8 -15 0 -8 5 -15 10 -15 18 0 11 -20 -7 -21 -15 0 -14 -2 4 -11 13 -6 23
-22 25 -37 3 -26 4 -27 46 -18 23 4 40 13 37 18 -4 5 -11 6 -17 3 -7 -4 -8 -2
-4 4 4 6 -2 19 -14 29 -27 24 -25 30 13 36 24 3 40 -1 64 -19 38 -29 47 -30
40 -4 -7 28 11 29 65 3 58 -28 60 -28 75 -5 9 15 7 21 -8 30 -11 7 -20 8 -24
2 -10 -17 -58 -11 -90 10 -16 11 -26 20 -20 20 5 0 -1 7 -13 16 -12 8 -22 21
-22 28 0 8 -7 16 -15 20 -8 3 -15 10 -15 16 0 5 7 10 15 10 8 0 15 4 15 9 0 6
17 7 38 4 35 -6 36 -5 22 12 -8 10 -14 21 -13 24 1 3 -1 8 -3 10 -2 2 -4 -3
-4 -12 0 -23 -13 -21 -35 3 -10 11 -22 17 -26 14 -5 -3 -9 0 -9 6 0 6 -5 8
-12 4 -9 -5 -8 -2 1 9 12 15 11 21 -9 42 -24 25 -41 31 -54 18z m41 -28 c0 -8
-4 -12 -9 -9 -5 3 -6 10 -3 15 9 13 12 11 12 -6z m-71 -90 c21 -21 14 -48 -16
-56 -23 -6 -23 -7 -3 -8 12 -1 25 -6 29 -13 4 -7 3 -8 -4 -4 -7 4 -12 1 -12
-6 0 -9 -3 -9 -10 2 -8 12 -10 10 -10 -8 0 -13 -4 -21 -9 -18 -5 3 -12 -2 -15
-11 -5 -11 -10 -13 -14 -7 -4 6 -19 13 -35 16 -24 5 -26 3 -15 -11 8 -9 3 -8
-10 4 -19 16 -21 21 -9 30 7 5 12 15 10 21 -2 6 4 11 14 11 9 0 30 16 47 36
33 41 41 44 62 22z"/>
<path d="M1376 2140 c-17 -6 -18 -7 -3 -13 9 -3 19 -2 23 4 9 15 2 18 -20 9z"/>
<path d="M8715 2090 c-11 -19 5 -30 25 -18 14 9 16 14 7 20 -16 10 -25 10 -32
-2z m25 -4 c0 -3 -4 -8 -10 -11 -5 -3 -10 -1 -10 4 0 6 5 11 10 11 6 0 10 -2
10 -4z"/>
<path d="M816 2073 c-5 -12 -16 -14 -51 -10 -25 4 -45 4 -45 2 0 -7 109 -55
124 -55 6 0 16 11 22 23 9 21 7 26 -17 39 -25 15 -28 15 -33 1z"/>
<path d="M1425 2053 c-46 -10 -49 -13 -29 -27 12 -9 26 -11 41 -5 18 6 23 5
23 -6 0 -8 9 -15 20 -15 23 0 25 -8 7 -35 -8 -11 -17 -29 -21 -40 -6 -16 -5
-18 5 -7 16 15 46 16 51 1 2 -6 19 -9 38 -7 l35 4 -32 13 c-18 7 -30 18 -27
25 3 7 -4 21 -16 31 -11 10 -20 23 -20 30 0 14 -33 45 -46 44 -5 -1 -18 -3
-29 -6z"/>
<path d="M8336 2015 c-11 -8 -15 -15 -9 -15 6 0 16 7 23 15 16 19 11 19 -14 0z"/>
<path d="M8696 1995 c4 -8 15 -15 26 -15 10 0 17 -4 13 -9 -3 -5 0 -13 6 -17
8 -4 9 -3 5 4 -4 7 4 14 21 18 49 10 49 12 1 13 -26 1 -50 6 -53 11 -10 16
-25 12 -19 -5z"/>
<path d="M1414 1965 c3 -8 0 -15 -7 -15 -7 0 -18 -9 -25 -20 -10 -17 -10 -20
3 -20 8 0 15 -6 16 -12 0 -7 7 5 16 27 9 22 21 43 27 47 6 4 1 8 -13 8 -16 0
-22 -4 -17 -15z"/>
<path d="M718 1958 c-3 -7 4 -22 15 -32 20 -19 20 -19 14 10 -3 16 -4 23 -1
16 5 -10 9 -10 22 0 13 11 14 11 7 -2 -14 -23 -14 -37 0 -37 8 0 12 9 10 19
-3 15 0 18 18 13 20 -5 19 -4 -3 9 -31 19 -76 20 -82 4z"/>
<path d="M616 1917 c3 -10 9 -15 12 -12 3 3 0 11 -7 18 -10 9 -11 8 -5 -6z"/>
<path d="M1473 1893 c-7 -3 -13 -10 -13 -17 0 -18 -37 -49 -48 -42 -6 3 -13
-1 -16 -10 -4 -11 -1 -14 12 -10 9 3 23 2 31 -3 12 -8 10 -15 -10 -39 -28 -35
-72 -55 -87 -40 -12 12 -26 -7 -17 -22 4 -6 19 -4 42 5 44 18 43 19 43 -1 0
-14 3 -14 15 -4 15 13 65 23 65 13 0 -3 -8 -16 -19 -29 -24 -30 -17 -68 15
-83 36 -16 36 -16 30 39 -4 42 -3 50 12 51 9 0 12 3 5 5 -8 4 -9 13 -3 30 9
23 6 28 -15 24 -5 -1 -5 4 2 11 10 10 9 15 -4 24 -14 11 -15 14 -2 28 13 14
18 12 52 -21 20 -20 37 -31 37 -25 0 7 -4 15 -10 18 -5 3 -10 15 -10 26 0 10
-6 18 -12 17 -8 -2 -12 6 -12 20 1 16 -5 24 -25 28 -14 3 -30 7 -36 8 -5 2
-16 1 -22 -1z"/>
<path d="M1350 1850 c-12 -7 -10 -9 7 -7 12 0 19 5 17 9 -6 10 -6 10 -24 -2z"/>
<path d="M8228 1843 c7 -3 16 -2 19 1 4 3 -2 6 -13 5 -11 0 -14 -3 -6 -6z"/>
<path d="M1350 1790 c-19 -4 -27 -8 -17 -9 11 0 15 -6 11 -12 -3 -6 5 -3 20 6
14 10 26 19 26 21 0 2 -1 3 -2 3 -2 -1 -19 -5 -38 -9z"/>
<path d="M1608 1753 c7 -3 16 -2 19 1 4 3 -2 6 -13 5 -11 0 -14 -3 -6 -6z"/>
<path d="M1554 1734 c3 -9 6 -17 6 -18 0 -1 14 -1 30 2 28 4 29 5 13 18 -26
19 -57 18 -49 -2z"/>
<path d="M1357 1673 c-4 -3 -7 -11 -7 -17 0 -6 5 -4 10 4 7 11 10 11 10 2 0
-7 5 -10 10 -7 6 3 10 10 10 16 0 10 -23 12 -33 2z"/>
</g>
</svg>
