<?xml version="1.0" standalone="no"?>
<!DOCTYPE svg PUBLIC "-//W3C//DTD SVG 20010904//EN"
 "http://www.w3.org/TR/2001/REC-SVG-20010904/DTD/svg10.dtd">
<svg version="1.0" xmlns="http://www.w3.org/2000/svg"
 width="512.000000pt" height="512.000000pt" viewBox="0 0 512.000000 512.000000"
 preserveAspectRatio="xMidYMid meet">

<g transform="translate(0.000000,512.000000) scale(0.100000,-0.100000)"
fill="#000000" stroke="none">
<path d="M2465 5106 c-65 -16 -106 -38 -157 -84 -50 -45 -751 -977 -774 -1029
-11 -25 -17 -66 -18 -118 -1 -68 3 -88 27 -136 15 -31 48 -76 73 -99 l45 -41
-252 -337 c-139 -185 -264 -362 -278 -392 -23 -49 -26 -68 -26 -165 0 -98 3
-116 27 -167 15 -32 38 -73 52 -91 14 -19 26 -37 26 -40 0 -4 -114 -159 -254
-346 -269 -358 -288 -391 -309 -524 -28 -180 64 -391 219 -498 151 -103 678
-272 1039 -332 l140 -23 5 -240 c5 -224 6 -242 28 -286 26 -53 72 -97 135
-130 41 -22 50 -23 347 -23 297 0 306 1 347 23 63 33 106 74 133 129 24 46 25
57 30 287 l5 240 140 23 c317 52 706 169 965 291 199 94 326 328 293 539 -21
133 -40 166 -309 524 -140 187 -254 342 -254 345 0 4 18 33 40 67 56 83 73
149 68 256 -3 64 -10 100 -29 141 -14 30 -139 207 -278 392 l-252 337 45 41
c89 82 123 202 91 318 -16 55 -56 113 -380 544 -199 266 -380 500 -403 520
-95 85 -219 115 -347 84z m162 -197 c15 -6 39 -20 52 -32 13 -12 179 -229 369
-482 229 -305 349 -473 356 -498 9 -32 7 -44 -9 -75 -24 -45 -82 -75 -238
-126 -424 -139 -881 -124 -1306 42 -109 43 -136 70 -136 136 0 39 19 68 347
506 190 256 357 475 370 487 54 50 130 67 195 42z m-427 -1479 c314 -54 719
-28 990 65 59 20 76 23 86 13 35 -38 527 -704 535 -725 16 -42 11 -131 -10
-171 -39 -76 -84 -104 -282 -175 -506 -184 -1079 -217 -1601 -93 -226 54 -499
154 -552 204 -62 59 -84 168 -48 244 9 20 133 191 275 380 l259 344 111 -32
c62 -18 168 -42 237 -54z m-660 -1186 c170 -62 362 -110 565 -142 152 -23 199
-26 445 -26 172 -1 310 4 370 12 245 33 488 94 700 173 63 23 115 38 120 33
45 -49 498 -669 514 -703 15 -34 21 -66 21 -121 0 -65 -4 -84 -33 -142 -43
-89 -90 -127 -226 -184 -314 -133 -679 -228 -1036 -268 -575 -65 -1194 11
-1740 216 -258 97 -317 136 -368 246 -36 79 -36 188 -1 259 13 28 135 197 269
377 177 235 249 325 260 320 8 -3 71 -26 140 -50z m1330 -1776 c0 -103 -4
-198 -10 -213 -18 -48 -57 -55 -300 -55 -243 0 -282 7 -300 55 -6 15 -10 110
-10 213 l0 187 310 0 310 0 0 -187z"/>
</g>
</svg>
