<?xml version="1.0" standalone="no"?>
<!DOCTYPE svg PUBLIC "-//W3C//DTD SVG 20010904//EN"
 "http://www.w3.org/TR/2001/REC-SVG-20010904/DTD/svg10.dtd">
<svg version="1.0" xmlns="http://www.w3.org/2000/svg"
 width="512.000000pt" height="512.000000pt" viewBox="0 0 512.000000 512.000000"
 preserveAspectRatio="xMidYMid meet">
<metadata>
Created by potrace 1.16, written by Peter Selinger 2001-2019
</metadata>
<g transform="translate(0.000000,512.000000) scale(0.100000,-0.100000)"
fill="#000000" stroke="none">
<path d="M2140 4327 c-46 -23 -50 -46 -50 -284 l0 -223 -64 0 c-79 0 -117 -25
-118 -78 -1 -35 33 -82 60 -82 10 0 12 -6 7 -17 -49 -117 -68 -298 -45 -415
15 -79 49 -164 90 -225 33 -49 30 -63 -16 -63 -11 0 -45 -12 -75 -27 -63 -32
-114 -94 -132 -159 l-11 -44 -113 112 -113 113 0 171 c0 165 -1 171 -23 192
-26 25 -73 28 -99 8 -27 -20 -38 -61 -38 -139 l0 -72 -78 83 c-66 71 -82 82
-110 82 -44 0 -67 -13 -81 -48 -17 -40 -4 -64 78 -152 l71 -75 -90 -3 c-82 -3
-91 -5 -110 -29 -36 -46 -21 -102 34 -123 15 -5 96 -10 180 -10 l152 0 140
-142 c76 -79 145 -150 152 -159 11 -14 5 -28 -44 -95 -215 -300 -269 -657
-152 -1014 94 -291 350 -558 642 -671 405 -156 853 -69 1165 226 302 285 420
715 305 1112 -33 115 -110 270 -175 356 l-52 69 159 159 159 159 165 0 c153 0
168 2 188 20 22 20 28 61 16 95 -11 29 -60 45 -135 45 l-72 0 77 80 c64 68 76
85 76 114 0 26 -7 41 -32 61 -44 37 -69 28 -158 -61 -42 -41 -79 -74 -83 -74
-4 0 -7 38 -7 84 0 95 -13 122 -66 132 -24 5 -37 0 -60 -19 l-29 -25 -3 -174
-3 -175 -113 -112 -113 -113 -8 38 c-19 106 -96 179 -214 205 l-49 10 29 44
c66 98 109 242 109 365 0 73 -25 199 -50 258 -18 40 -18 42 -1 42 29 0 64 46
63 82 -1 53 -39 78 -117 78 l-64 0 -3 235 c-3 229 -4 235 -26 257 l-23 23
-437 3 c-338 1 -443 -1 -462 -11z m782 -332 l3 -175 -332 0 -333 0 0 175 0
175 330 0 329 0 3 -175z m98 -367 c60 -98 86 -261 61 -378 -18 -84 -69 -176
-133 -241 l-58 -59 -299 0 -298 0 -46 40 c-50 45 -105 123 -130 187 -46 117
-42 276 8 389 45 103 2 94 467 94 l408 0 20 -32z m172 -877 c27 -24 33 -36 33
-69 0 -49 -24 -78 -74 -93 -24 -6 -223 -9 -583 -7 -537 3 -547 3 -575 24 -39
29 -50 72 -29 116 10 20 27 40 39 46 15 7 211 11 589 11 l568 1 32 -29z m-760
-331 l433 0 -3 -292 c-1 -173 2 -307 8 -328 19 -68 27 -70 262 -70 208 0 209
0 233 25 l25 24 0 248 0 248 26 -45 c40 -69 81 -178 100 -266 22 -104 22 -293
-1 -394 -79 -350 -360 -636 -706 -720 -131 -31 -330 -29 -457 6 -342 93 -600
357 -684 701 -27 113 -29 302 -3 413 36 156 112 305 213 419 l52 60 35 -15
c28 -11 112 -14 467 -14z m798 -260 l0 -270 -100 0 -100 0 0 265 0 264 83 4
c45 1 90 4 100 5 16 2 17 -17 17 -268z"/>
<path d="M2350 3473 c-49 -18 -72 -92 -51 -164 19 -62 87 -81 129 -36 31 33
32 147 2 177 -11 11 -24 20 -29 20 -5 0 -15 2 -23 4 -7 3 -20 2 -28 -1z"/>
<path d="M2769 3465 c-58 -31 -66 -147 -14 -198 18 -19 67 -22 95 -7 43 23 51
159 12 193 -26 22 -64 27 -93 12z"/>
</g>
</svg>
