<?xml version="1.0" standalone="no"?>
<!DOCTYPE svg PUBLIC "-//W3C//DTD SVG 20010904//EN"
 "http://www.w3.org/TR/2001/REC-SVG-20010904/DTD/svg10.dtd">
<svg version="1.0" xmlns="http://www.w3.org/2000/svg"
 width="300.000000pt" height="300.000000pt" viewBox="0 0 300.000000 300.000000"
 preserveAspectRatio="xMidYMid meet">
<metadata>
Created by potrace 1.10, written by Peter Selinger 2001-2011
</metadata>
<g transform="translate(0.000000,300.000000) scale(0.100000,-0.100000)"
fill="#000000" stroke="none">
<path d="M1473 2990 c-34 -14 -39 -37 -33 -150 6 -121 19 -105 23 27 2 63 6
86 20 100 16 16 18 16 35 0 13 -13 18 -40 22 -112 3 -54 9 -95 15 -95 6 0 11
40 13 93 2 78 0 97 -15 115 -22 25 -51 33 -80 22z"/>
<path d="M1208 2894 c-22 -12 -28 -22 -28 -49 0 -29 11 -44 88 -118 48 -46
106 -101 130 -122 l42 -37 0 -124 c0 -68 -4 -124 -9 -124 -5 0 -22 15 -38 33
-15 17 -63 65 -106 106 -72 67 -81 73 -110 67 -18 -3 -38 -14 -44 -23 -30 -39
-16 -58 147 -214 l160 -153 0 -69 c0 -65 -3 -74 -56 -168 l-56 -99 -108 0
c-105 0 -109 1 -166 35 -32 19 -61 35 -65 35 -4 0 -10 15 -14 33 -4 17 -16 70
-27 117 -11 47 -22 96 -25 110 -3 14 -6 30 -7 35 -1 6 -8 35 -15 65 -14 64
-18 73 -48 89 -18 9 -29 9 -52 -3 -42 -22 -44 -40 -17 -151 2 -5 6 -28 10 -50
5 -22 15 -65 24 -95 15 -49 17 -52 20 -25 4 29 -8 100 -34 204 -9 37 -10 59
-3 72 13 26 47 24 59 -3 9 -24 63 -254 76 -323 11 -65 29 -89 96 -131 61 -37
66 -39 165 -42 132 -4 145 3 209 110 47 81 49 85 52 176 l4 94 -64 61 c-257
247 -251 240 -229 276 13 19 48 -4 154 -101 124 -114 137 -108 137 62 0 136 2
132 -125 250 -115 109 -126 122 -123 144 6 42 45 31 111 -32 60 -58 107 -91
107 -75 -1 19 -147 159 -175 166 -11 4 -32 -1 -47 -9z"/>
<path d="M1668 2835 c-47 -41 -88 -81 -91 -89 -11 -27 25 -5 100 61 52 46 79
64 95 61 45 -6 33 -41 -33 -104 -35 -32 -94 -88 -131 -125 l-68 -65 0 -121 c0
-114 9 -156 24 -116 4 10 6 66 5 125 l-1 108 68 62 c113 101 185 172 195 190
17 32 -28 88 -70 88 -5 0 -47 -34 -93 -75z"/>
<path d="M1763 2498 c-93 -82 -197 -187 -183 -188 8 0 61 41 118 91 106 94
143 109 150 63 2 -15 -25 -46 -104 -120 -59 -54 -129 -120 -156 -146 l-48 -48
0 -81 c0 -71 4 -89 30 -140 49 -97 79 -139 108 -150 15 -6 72 -9 127 -7 95 3
104 5 155 38 92 58 84 42 135 275 20 94 41 178 47 188 6 11 18 17 31 15 31 -4
33 -49 7 -163 -12 -52 -20 -109 -18 -127 l4 -33 12 40 c7 22 23 89 37 149 21
99 22 112 9 138 -11 22 -21 28 -48 28 -46 0 -63 -23 -81 -110 -19 -86 -17 -76
-45 -200 -30 -131 -31 -134 -100 -174 -60 -35 -63 -36 -170 -36 -103 0 -110 1
-121 23 -6 12 -30 53 -52 91 -38 67 -40 73 -38 150 l1 81 77 70 c156 142 243
231 243 246 0 27 -40 69 -65 69 -14 0 -41 -15 -62 -32z"/>
<path d="M431 2443 c-12 -14 -19 -33 -17 -42 4 -13 24 -106 32 -147 6 -31 16
-54 25 -54 12 0 11 10 -9 110 -10 47 -16 92 -14 102 7 33 56 32 66 0 3 -10 19
-79 36 -155 35 -158 47 -187 87 -207 15 -8 56 -32 91 -53 35 -21 71 -37 80
-35 17 4 -13 25 -145 107 -48 30 -53 36 -64 89 -7 31 -14 62 -15 67 -6 23 -36
162 -40 185 -13 62 -76 81 -113 33z"/>
<path d="M2481 2453 c-11 -10 -22 -29 -25 -43 -4 -23 -34 -162 -40 -185 -2 -5
-8 -38 -15 -71 -11 -49 -18 -64 -38 -73 -13 -6 -61 -35 -106 -64 -56 -35 -76
-53 -63 -55 21 -4 184 93 206 123 14 18 58 186 74 277 4 20 15 47 25 59 l18
22 20 -20 c20 -20 20 -24 7 -84 -8 -35 -17 -84 -20 -109 -4 -40 -3 -43 9 -28
14 18 50 163 50 205 0 54 -60 80 -102 46z"/>
<path d="M226 2279 c-17 -13 -26 -30 -26 -49 0 -32 29 -57 125 -110 79 -43 82
-46 45 -54 -94 -18 -201 -59 -216 -81 -20 -31 -9 -72 26 -90 23 -12 33 -12 67
0 22 8 95 30 162 49 68 20 126 38 130 41 4 2 23 -6 42 -19 67 -45 189 -108
189 -97 0 13 -156 117 -197 132 -21 7 -47 4 -103 -11 -41 -11 -84 -23 -95 -25
-12 -3 -45 -13 -75 -23 -30 -10 -68 -18 -85 -18 -25 1 -31 6 -33 27 -3 25 2
29 80 55 46 15 89 27 95 27 7 0 22 10 33 22 20 21 20 22 1 46 -10 13 -48 41
-84 62 -38 23 -67 47 -71 59 -13 51 26 50 116 -2 76 -44 132 -57 85 -20 -31
25 -163 100 -175 100 -5 0 -21 -9 -36 -21z"/>
<path d="M2700 2282 c-77 -41 -129 -73 -140 -87 -22 -26 9 -17 86 25 79 43 96
47 113 26 19 -23 2 -45 -69 -87 -37 -22 -76 -49 -85 -59 -17 -19 -17 -21 -1
-39 10 -10 56 -31 104 -46 99 -31 114 -40 110 -69 -5 -33 -36 -30 -203 19
-144 43 -158 46 -188 33 -59 -24 -178 -100 -188 -121 -9 -15 6 -10 67 23 44
24 94 53 112 66 l33 22 112 -34 c62 -19 140 -44 175 -55 57 -19 65 -19 86 -5
13 8 27 27 30 41 11 43 -15 71 -81 90 -32 9 -85 24 -118 34 l-59 17 79 43 c97
53 125 77 125 108 0 23 -40 73 -57 73 -5 0 -24 -8 -43 -18z"/>
<path d="M705 1842 c-1 -2 -25 -9 -51 -17 -200 -56 -214 -63 -214 -115 0 -50
54 -74 112 -51 19 8 132 43 148 46 18 4 104 30 153 45 l58 19 67 -40 c63 -38
72 -47 121 -135 l53 -94 -57 -100 c-31 -55 -60 -100 -64 -100 -4 0 -33 -16
-65 -35 -45 -27 -62 -32 -79 -25 -12 5 -69 23 -127 40 -58 17 -141 43 -184 56
-79 25 -80 25 -105 6 -31 -23 -39 -72 -16 -95 14 -14 103 -45 225 -78 71 -19
82 -20 78 -7 -3 7 -56 29 -119 48 -161 50 -157 49 -164 70 -17 52 11 52 205
-6 246 -73 235 -72 308 -28 35 20 74 51 86 68 41 55 96 162 96 187 0 24 -76
165 -109 202 -8 10 -44 34 -79 54 -77 43 -52 46 -349 -43 -123 -37 -148 -38
-160 -8 -10 26 16 40 155 84 72 22 132 45 132 50 0 9 -46 10 -55 2z"/>
<path d="M1450 1808 c-18 -24 -38 -55 -46 -69 -17 -34 -31 -39 -110 -39 -72 0
-104 -12 -104 -38 0 -9 17 -50 37 -90 l38 -74 -38 -71 c-62 -119 -47 -132 22
-19 47 78 49 97 19 149 -12 21 -28 50 -35 65 -8 15 -18 30 -24 33 -24 15 -2
20 76 16 106 -4 120 4 172 99 21 38 40 70 43 70 3 0 22 -32 43 -70 52 -95 66
-103 172 -99 84 4 94 2 76 -16 -20 -20 -81 -138 -81 -155 0 -19 75 -156 91
-166 20 -12 7 30 -28 95 l-38 69 38 74 c20 41 37 81 37 91 0 25 -32 37 -99 37
-80 0 -99 11 -146 84 -51 78 -73 83 -115 24z"/>
<path d="M2240 1842 c0 -12 47 -30 175 -67 97 -29 107 -35 112 -64 4 -31 -31
-35 -110 -11 -40 12 -80 24 -89 26 -29 6 -48 12 -137 39 -47 14 -93 25 -102
25 -28 0 -138 -70 -164 -104 -39 -52 -95 -161 -95 -186 0 -36 90 -189 130
-220 55 -43 118 -72 148 -67 15 3 83 22 152 42 237 71 238 71 255 54 20 -19
11 -43 -20 -57 -13 -6 -72 -25 -131 -42 -59 -17 -114 -39 -123 -47 -14 -15
-12 -15 24 -9 49 9 231 63 263 79 42 20 43 78 2 109 -25 18 -27 18 -85 -1 -33
-10 -98 -30 -145 -44 -47 -14 -114 -34 -149 -44 l-64 -19 -66 39 c-61 36 -70
47 -120 133 l-53 94 53 94 c50 87 59 97 121 134 l67 41 108 -34 c324 -100 312
-98 344 -69 21 19 25 55 9 84 -9 17 -30 25 -205 75 -86 25 -105 28 -105 17z"/>
<path d="M1212 1321 c-22 -13 10 -21 89 -21 77 0 93 -10 128 -77 24 -48 54
-76 78 -71 10 1 37 32 60 67 23 36 48 68 55 73 7 4 45 8 83 8 73 0 111 12 80
24 -34 13 -160 6 -182 -9 -12 -9 -39 -47 -60 -85 -21 -39 -40 -70 -43 -70 -3
0 -22 31 -43 70 -21 38 -48 76 -60 85 -24 16 -162 21 -185 6z"/>
<path d="M1054 1199 c-98 -51 -98 -52 -145 -265 -23 -105 -48 -199 -55 -208
-8 -12 -19 -16 -33 -11 -27 8 -27 47 -1 160 22 94 27 173 9 142 -6 -9 -12 -25
-14 -35 -4 -21 -9 -42 -35 -154 -11 -47 -17 -94 -13 -105 16 -43 77 -58 106
-25 9 10 24 51 32 92 9 41 18 82 20 90 2 8 15 66 28 128 14 63 27 115 29 116
1 2 31 19 66 40 62 35 65 36 172 36 l109 0 40 -72 c22 -40 46 -81 53 -91 9
-12 12 -43 10 -101 l-3 -84 -155 -143 c-136 -126 -154 -147 -154 -175 0 -36
26 -64 60 -64 12 0 41 16 64 36 80 71 186 177 181 182 -8 8 -57 -29 -130 -98
-87 -83 -106 -94 -130 -76 -11 8 -15 19 -11 32 3 11 71 80 151 154 80 73 148
144 151 157 4 12 5 58 3 100 -4 72 -8 84 -53 161 -60 103 -76 112 -199 112
-86 0 -99 -3 -153 -31z"/>
<path d="M1656 1207 c-12 -12 -42 -56 -67 -97 -44 -75 -44 -75 -44 -172 l0
-97 110 -103 c178 -166 197 -186 193 -204 -2 -9 -10 -21 -19 -27 -20 -12 -35
-1 -150 107 -44 42 -88 76 -96 76 -19 0 -8 -14 82 -100 111 -106 129 -120 156
-120 33 0 59 29 59 66 0 26 -18 47 -112 135 -62 57 -132 122 -155 144 l-42 40
-2 82 c-1 45 3 88 8 95 5 7 29 48 52 91 l42 77 109 0 c104 0 112 -1 162 -31
69 -41 88 -58 88 -82 0 -10 9 -58 21 -106 23 -96 22 -88 44 -191 19 -90 36
-112 84 -108 48 4 64 36 50 98 -6 25 -13 56 -15 70 -3 14 -10 45 -15 70 -6 25
-12 53 -14 62 -2 10 -9 26 -15 35 -15 24 -4 -120 11 -149 6 -11 12 -50 13 -87
1 -61 -1 -66 -21 -69 -30 -4 -36 13 -80 213 -19 88 -42 175 -51 194 -11 21
-39 47 -76 70 -58 35 -62 36 -173 39 -107 2 -115 1 -137 -21z"/>
<path d="M695 1100 c-147 -83 -152 -85 -188 -73 -17 6 -66 21 -107 33 -41 12
-97 29 -125 39 -64 21 -106 14 -123 -21 -19 -40 -2 -72 50 -90 80 -30 181 -58
187 -53 11 11 -21 29 -111 59 -84 28 -93 33 -93 56 0 38 28 36 187 -10 78 -23
151 -44 162 -46 32 -6 251 124 236 140 -3 3 -37 -13 -75 -34z"/>
<path d="M2232 1128 c5 -14 134 -99 188 -124 34 -15 40 -14 145 16 239 70 260
72 253 28 -3 -26 -37 -44 -117 -65 -56 -15 -107 -40 -98 -50 3 -2 54 9 114 26
119 34 149 56 138 100 -10 43 -39 60 -82 50 -21 -5 -47 -12 -58 -14 -11 -3
-40 -11 -65 -20 -25 -8 -79 -25 -122 -38 l-76 -23 -94 56 c-106 64 -132 76
-126 58z"/>
<path d="M692 984 c-108 -65 -109 -66 -141 -226 -31 -154 -42 -182 -73 -186
-33 -4 -40 26 -22 94 20 77 26 134 15 134 -8 0 -20 -24 -26 -50 -38 -170 -38
-176 -7 -200 13 -11 33 -20 42 -20 26 0 59 31 64 60 4 21 15 71 31 140 2 8 11
51 20 95 l17 81 85 49 c47 27 95 57 107 66 20 18 20 18 1 19 -11 0 -62 -25
-113 -56z"/>
<path d="M2200 1020 c14 -11 62 -42 107 -68 l81 -47 13 -60 c7 -33 13 -64 15
-70 6 -23 36 -162 40 -185 6 -31 39 -60 69 -60 27 0 60 34 60 64 1 25 -41 195
-49 203 -17 18 -17 -17 0 -100 23 -108 21 -127 -11 -127 -30 0 -39 17 -59 110
-40 190 -52 228 -82 254 -16 14 -32 26 -36 26 -4 0 -36 18 -70 40 -68 43 -126
58 -78 20z"/>
<path d="M375 911 c-79 -43 -132 -76 -152 -94 -42 -38 -19 -107 36 -107 40 0
196 93 186 111 -4 5 -29 -5 -58 -22 -96 -56 -117 -64 -135 -53 -34 22 -19 46
57 93 41 26 81 57 89 69 8 12 13 21 11 21 -2 -1 -17 -9 -34 -18z"/>
<path d="M2600 909 c0 -5 38 -34 85 -64 84 -55 96 -70 73 -93 -19 -19 -38 -14
-110 29 -98 58 -123 46 -29 -15 102 -66 119 -71 150 -48 26 19 39 66 24 88 -9
12 -148 97 -175 107 -10 3 -18 2 -18 -4z"/>
<path d="M1436 665 c-3 -9 -6 -67 -6 -130 l0 -113 -42 -35 c-110 -91 -218
-203 -218 -225 0 -26 41 -72 64 -72 16 0 111 76 165 134 59 61 11 42 -71 -29
-42 -36 -83 -65 -92 -65 -8 0 -20 9 -26 21 -13 22 -25 8 158 183 40 38 77 77
82 87 12 22 13 229 1 247 -7 11 -10 10 -15 -3z"/>
<path d="M1546 665 c-10 -28 -7 -225 5 -247 6 -11 41 -48 77 -82 156 -144 171
-161 165 -184 -10 -39 -46 -27 -122 43 -67 62 -91 76 -91 56 0 -10 120 -124
155 -147 14 -9 32 -13 45 -9 29 9 53 50 46 78 -5 20 -184 197 -238 235 -16 11
-18 28 -18 130 0 114 -10 164 -24 127z"/>
<path d="M1436 235 c-3 -9 -6 -54 -6 -100 0 -99 16 -128 70 -128 55 0 70 29
70 139 0 51 -4 96 -10 99 -13 8 -19 -23 -22 -117 -3 -57 -8 -82 -21 -95 -16
-16 -18 -16 -34 0 -13 13 -19 41 -23 111 -5 95 -12 121 -24 91z"/>
</g>
</svg>
